<svg width="1363" height="841" viewBox="0 0 1363 841" fill="none" xmlns="http://www.w3.org/2000/svg">
<rect width="1363" height="841" fill="#F0F1EB"/>
<line x1="108" y1="403" x2="108" y2="692" stroke="black" stroke-width="6"/>
<line x1="739" y1="403" x2="739" y2="692" stroke="black" stroke-width="6"/>
<line x1="105" y1="689" x2="736" y2="689" stroke="black" stroke-width="6"/>
<circle cx="223.5" cy="569.5" r="60" fill="#FF0000" fill-opacity="0.18" stroke="#FF0000" stroke-width="5"/>
<path d="M206.341 596V543.636H224.034C228.125 543.636 231.483 544.335 234.108 545.733C236.733 547.114 238.676 549.014 239.938 551.435C241.199 553.855 241.83 556.608 241.83 559.693C241.83 562.778 241.199 565.514 239.938 567.901C238.676 570.287 236.741 572.162 234.134 573.526C231.526 574.872 228.193 575.545 224.136 575.545H209.818V569.818H223.932C226.727 569.818 228.977 569.409 230.682 568.591C232.403 567.773 233.648 566.614 234.415 565.114C235.199 563.597 235.591 561.79 235.591 559.693C235.591 557.597 235.199 555.764 234.415 554.196C233.631 552.628 232.378 551.418 230.656 550.565C228.935 549.696 226.659 549.261 223.83 549.261H212.682V596H206.341ZM230.989 572.477L243.875 596H236.511L223.83 572.477H230.989Z" fill="#FF0000"/>
<path d="M403.341 636V583.636H421.648C425.295 583.636 428.304 584.267 430.673 585.528C433.043 586.773 434.807 588.452 435.966 590.565C437.125 592.662 437.705 594.989 437.705 597.545C437.705 599.795 437.304 601.653 436.503 603.119C435.719 604.585 434.679 605.744 433.384 606.597C432.105 607.449 430.716 608.08 429.216 608.489V609C430.818 609.102 432.429 609.665 434.048 610.688C435.668 611.71 437.023 613.176 438.114 615.085C439.205 616.994 439.75 619.33 439.75 622.091C439.75 624.716 439.153 627.077 437.96 629.173C436.767 631.27 434.884 632.932 432.31 634.159C429.736 635.386 426.386 636 422.261 636H403.341ZM409.682 630.375H422.261C426.403 630.375 429.344 629.574 431.082 627.972C432.838 626.352 433.716 624.392 433.716 622.091C433.716 620.318 433.264 618.682 432.361 617.182C431.457 615.665 430.17 614.455 428.5 613.551C426.83 612.631 424.852 612.17 422.568 612.17H409.682V630.375ZM409.682 606.648H421.443C423.352 606.648 425.074 606.273 426.608 605.523C428.159 604.773 429.386 603.716 430.29 602.352C431.21 600.989 431.67 599.386 431.67 597.545C431.67 595.244 430.869 593.293 429.267 591.69C427.665 590.071 425.125 589.261 421.648 589.261H409.682V606.648Z" fill="#1E88E5"/>
<circle cx="420.5" cy="609.5" r="60" fill="#1E88E5" fill-opacity="0.18" stroke="#1E88E5" stroke-width="5"/>
<path d="M610.489 521.636L626.034 565.716H626.648L642.193 521.636H648.841L629.614 574H623.068L603.841 521.636H610.489Z" fill="#18A900"/>
<circle cx="626.5" cy="547.5" r="60" fill="#18A900" fill-opacity="0.18" stroke="#18A900" stroke-width="5"/>
<path d="M1013.15 326.45C953.863 326.45 889.9 289.263 889.9 207.663C889.9 126.062 953.863 88.875 1013.15 88.875C1046.09 88.875 1076.48 99.7125 1099 119.475C1123.44 141.15 1136.4 171.75 1136.4 207.663C1136.4 243.575 1123.44 273.963 1099 295.638C1076.48 315.4 1045.88 326.45 1013.15 326.45Z" fill="url(#paint0_radial_1_989)"/>
<path d="M971.5 160.998C962.596 160.998 954.5 168.52 954.5 181.015C954.5 193.51 962.596 201.011 971.5 201.011C980.425 201.011 988.5 193.489 988.5 181.015C988.5 168.541 980.51 160.998 971.5 160.998Z" fill="#422B0D"/>
<path d="M970.756 169.349C967.739 167.904 964.105 169.179 962.639 172.196C961.513 174.555 962.023 177.381 963.914 179.209C966.931 180.654 970.565 179.379 972.031 176.361C973.158 174.003 972.648 171.176 970.756 169.349Z" fill="#896024"/>
<path d="M1053.1 160.998C1044.2 160.998 1036.1 168.52 1036.1 181.015C1036.1 193.51 1044.2 201.011 1053.1 201.011C1062 201.011 1070.1 193.489 1070.1 181.015C1070.1 168.541 1062 160.998 1053.1 160.998Z" fill="#422B0D"/>
<path d="M1052.25 169.349C1049.23 167.904 1045.6 169.179 1044.13 172.196C1043.01 174.555 1043.52 177.381 1045.41 179.209C1048.43 180.654 1052.06 179.379 1053.53 176.361C1054.65 174.003 1054.14 171.176 1052.25 169.349Z" fill="#896024"/>
<path d="M1011.87 268.671C992.601 268.82 974.199 260.724 961.3 246.401C960.322 245.275 960.089 243.681 960.705 242.321C961.321 240.94 962.681 240.048 964.19 240.026C964.87 240.026 965.55 240.218 966.145 240.558C976.387 246.444 993.515 253.754 1011.87 253.754H1012.17C1030.51 253.754 1047.66 246.444 1057.88 240.558C1058.48 240.218 1059.16 240.026 1059.84 240.026C1061.34 240.048 1062.7 240.94 1063.32 242.321C1063.96 243.681 1063.72 245.275 1062.73 246.401C1049.83 260.724 1031.38 268.841 1012.11 268.671" fill="#422B0D"/>
<path d="M1114.92 137.049C1126.24 155.324 1132.15 177.084 1132.15 201.288C1132.15 237.2 1119.19 267.588 1094.75 289.263C1072.22 309.025 1041.62 320.075 1008.9 320.075C970.522 320.075 930.275 304.456 906.517 271.328C929.382 308.855 972.392 326.45 1013.15 326.45C1045.87 326.45 1076.47 315.4 1099 295.638C1123.44 273.963 1136.4 243.575 1136.4 207.663C1136.4 180.59 1129.03 156.535 1114.92 137.049Z" fill="#EB8F00"/>
<path d="M428.26 563.801C428.26 563.801 426.369 573.038 432.801 582.889C432.801 582.889 434.236 584.272 439.363 584.95C443.525 585.511 462.561 580.788 472.32 577.709C489.724 572.216 499.053 565.041 508.499 554.342C521.976 539.064 542.968 542.652 542.968 542.652C552.962 538.96 569.31 480.993 549.309 478.996C475.855 471.638 418.736 476.596 411.613 487.568C403.85 499.519 403.732 523.017 402.741 539.064C402.441 543.852 401.162 555.621 404.241 558.961C409.982 565.21 428.26 563.801 428.26 563.801Z" fill="#FFCA28"/>
<path d="M448.222 562.366C444.556 562.849 431.822 564.571 429.735 566.215C426.199 568.994 430.452 580.866 431.927 582.184C436.741 586.503 445.247 585.511 451.575 584.154C454.041 583.632 462.326 581.427 462.326 581.427C462.326 581.427 450.662 578.596 447.896 574.356C443.173 567.089 448.692 563.371 448.222 562.366Z" fill="#FFB300"/>
<path d="M413.778 547.806C413.23 550.963 425.599 541.086 427.478 539.834C429.356 538.581 433.923 538.268 436.389 539.09C438.828 539.899 441.098 543.043 441.986 544.205C444.986 548.145 448.861 549.476 446.435 544.857C440.864 534.289 438.137 529.696 445.143 521.464C445.143 521.464 462.039 529.644 461.517 535.842C460.995 542.039 455.868 548.119 450.74 554.459C445.6 560.8 430.896 563.397 424.933 563.945C424.699 569.92 427.804 579.144 432.814 582.902C432.814 582.902 431.3 568.681 433.101 567.715C439.481 564.336 446.148 565.862 451.249 562.705C456.35 559.548 469.997 541.086 472.868 528.705C474.342 522.338 474.655 515.397 472.62 519.337C470.597 523.264 467.27 529.71 467.27 529.71C456.337 514.158 440.772 512.644 427.464 502.546C421.711 498.188 425.194 506.029 432.057 512.866C432.983 513.792 434.875 514.719 434.497 518.02C434.118 521.333 432.788 527.061 429.513 531.197C426.225 535.333 414.326 544.648 413.778 547.806Z" fill="#EDA600"/>
<path d="M442.299 585.289C452.775 585.289 480.5 577.409 490.99 570.611C494.865 568.106 502.223 562.379 507.403 557.278C511.865 552.881 514.213 549.189 520.671 546.514C525.473 544.531 542.981 542.652 542.981 542.652C538.311 542.352 522.38 537.251 514.931 542C511.251 544.348 506.607 548.928 501.688 553.781C497.004 558.413 491.955 562.888 488.863 565.223C477.891 573.521 442.299 585.289 442.299 585.289Z" fill="#EDA600"/>
<defs>
<radialGradient id="paint0_radial_1_989" cx="0" cy="0" r="1" gradientUnits="userSpaceOnUse" gradientTransform="translate(1013.15 207.663) scale(121.039 121.039)">
<stop offset="0.5" stop-color="#FDE030"/>
<stop offset="0.92" stop-color="#F7C02B"/>
<stop offset="1" stop-color="#F4A223"/>
</radialGradient>
</defs>
</svg>
