<svg width="1363" height="841" viewBox="0 0 1363 841" fill="none" xmlns="http://www.w3.org/2000/svg">
<rect width="1363" height="841" fill="#F0F1EB"/>
<line x1="108" y1="403" x2="108" y2="692" stroke="black" stroke-width="6"/>
<line x1="739" y1="403" x2="739" y2="692" stroke="black" stroke-width="6"/>
<line x1="105" y1="689" x2="736" y2="689" stroke="black" stroke-width="6"/>
<circle cx="223.5" cy="569.5" r="60" fill="#FF0000" fill-opacity="0.18" stroke="#FF0000" stroke-width="5"/>
<path d="M206.341 596V543.636H224.034C228.125 543.636 231.483 544.335 234.108 545.733C236.733 547.114 238.676 549.014 239.938 551.435C241.199 553.855 241.83 556.608 241.83 559.693C241.83 562.778 241.199 565.514 239.938 567.901C238.676 570.287 236.741 572.162 234.134 573.526C231.526 574.872 228.193 575.545 224.136 575.545H209.818V569.818H223.932C226.727 569.818 228.977 569.409 230.682 568.591C232.403 567.773 233.648 566.614 234.415 565.114C235.199 563.597 235.591 561.79 235.591 559.693C235.591 557.597 235.199 555.764 234.415 554.196C233.631 552.628 232.378 551.418 230.656 550.565C228.935 549.696 226.659 549.261 223.83 549.261H212.682V596H206.341ZM230.989 572.477L243.875 596H236.511L223.83 572.477H230.989Z" fill="#FF0000"/>
<path d="M403.341 636V583.636H421.648C425.295 583.636 428.304 584.267 430.673 585.528C433.043 586.773 434.807 588.452 435.966 590.565C437.125 592.662 437.705 594.989 437.705 597.545C437.705 599.795 437.304 601.653 436.503 603.119C435.719 604.585 434.679 605.744 433.384 606.597C432.105 607.449 430.716 608.08 429.216 608.489V609C430.818 609.102 432.429 609.665 434.048 610.688C435.668 611.71 437.023 613.176 438.114 615.085C439.205 616.994 439.75 619.33 439.75 622.091C439.75 624.716 439.153 627.077 437.96 629.173C436.767 631.27 434.884 632.932 432.31 634.159C429.736 635.386 426.386 636 422.261 636H403.341ZM409.682 630.375H422.261C426.403 630.375 429.344 629.574 431.082 627.972C432.838 626.352 433.716 624.392 433.716 622.091C433.716 620.318 433.264 618.682 432.361 617.182C431.457 615.665 430.17 614.455 428.5 613.551C426.83 612.631 424.852 612.17 422.568 612.17H409.682V630.375ZM409.682 606.648H421.443C423.352 606.648 425.074 606.273 426.608 605.523C428.159 604.773 429.386 603.716 430.29 602.352C431.21 600.989 431.67 599.386 431.67 597.545C431.67 595.244 430.869 593.293 429.267 591.69C427.665 590.071 425.125 589.261 421.648 589.261H409.682V606.648Z" fill="#1E88E5"/>
<circle cx="420.5" cy="609.5" r="60" fill="#1E88E5" fill-opacity="0.18" stroke="#1E88E5" stroke-width="5"/>
<path d="M610.489 521.636L626.034 565.716H626.648L642.193 521.636H648.841L629.614 574H623.068L603.841 521.636H610.489Z" fill="#18A900"/>
<circle cx="626.5" cy="547.5" r="60" fill="#18A900" fill-opacity="0.18" stroke="#18A900" stroke-width="5"/>
<path d="M1013.15 326.45C953.862 326.45 889.9 289.263 889.9 207.663C889.9 126.062 953.862 88.875 1013.15 88.875C1046.09 88.875 1076.47 99.7125 1099 119.475C1123.44 141.15 1136.4 171.75 1136.4 207.663C1136.4 243.575 1123.44 273.963 1099 295.638C1076.47 315.4 1045.87 326.45 1013.15 326.45Z" fill="url(#paint0_radial_1_992)"/>
<path d="M971.5 160.998C962.596 160.998 954.5 168.52 954.5 181.015C954.5 193.51 962.596 201.011 971.5 201.011C980.425 201.011 988.5 193.489 988.5 181.015C988.5 168.541 980.51 160.998 971.5 160.998Z" fill="#422B0D"/>
<path d="M970.756 169.349C967.739 167.904 964.105 169.179 962.639 172.196C961.513 174.555 962.023 177.381 963.914 179.209C966.931 180.654 970.565 179.379 972.031 176.361C973.158 174.003 972.648 171.176 970.756 169.349Z" fill="#896024"/>
<path d="M1053.1 160.998C1044.2 160.998 1036.1 168.52 1036.1 181.015C1036.1 193.51 1044.2 201.011 1053.1 201.011C1062 201.011 1070.1 193.489 1070.1 181.015C1070.1 168.541 1062 160.998 1053.1 160.998Z" fill="#422B0D"/>
<path d="M1052.25 169.349C1049.23 167.904 1045.6 169.179 1044.13 172.196C1043.01 174.555 1043.52 177.381 1045.41 179.209C1048.43 180.654 1052.06 179.379 1053.53 176.361C1054.65 174.003 1054.14 171.176 1052.25 169.349Z" fill="#896024"/>
<path d="M1011.88 268.671C992.601 268.82 974.199 260.724 961.3 246.401C960.323 245.275 960.089 243.681 960.705 242.321C961.321 240.94 962.681 240.048 964.19 240.026C964.87 240.026 965.55 240.218 966.145 240.558C976.388 246.444 993.515 253.754 1011.88 253.754H1012.17C1030.51 253.754 1047.66 246.444 1057.88 240.558C1058.48 240.218 1059.16 240.026 1059.84 240.026C1061.35 240.048 1062.71 240.94 1063.32 242.321C1063.96 243.681 1063.73 245.275 1062.73 246.401C1049.83 260.724 1031.38 268.841 1012.11 268.671" fill="#422B0D"/>
<path d="M1114.92 137.049C1126.24 155.324 1132.15 177.084 1132.15 201.288C1132.15 237.2 1119.19 267.588 1094.75 289.263C1072.23 309.025 1041.63 320.075 1008.9 320.075C970.523 320.075 930.275 304.456 906.518 271.328C929.383 308.855 972.393 326.45 1013.15 326.45C1045.88 326.45 1076.48 315.4 1099 295.638C1123.44 273.963 1136.4 243.575 1136.4 207.663C1136.4 180.59 1129.03 156.535 1114.92 137.049Z" fill="#EB8F00"/>
<path d="M657.26 321.801C657.26 321.801 655.368 331.038 661.801 340.889C661.801 340.889 663.236 342.272 668.363 342.95C672.525 343.511 691.56 338.788 701.32 335.709C718.724 330.216 728.053 323.041 737.499 312.342C750.976 297.064 771.968 300.652 771.968 300.652C781.962 296.96 798.31 238.993 778.309 236.996C704.855 229.638 647.736 234.596 640.612 245.568C632.85 257.519 632.732 281.017 631.741 297.064C631.44 301.852 630.162 313.621 633.241 316.961C638.982 323.21 657.26 321.801 657.26 321.801Z" fill="#FFCA28"/>
<path d="M677.222 320.366C673.556 320.849 660.822 322.571 658.735 324.215C655.199 326.994 659.452 338.866 660.926 340.184C665.741 344.503 674.247 343.511 680.575 342.154C683.041 341.632 691.326 339.427 691.326 339.427C691.326 339.427 679.662 336.596 676.896 332.356C672.173 325.089 677.692 321.371 677.222 320.366Z" fill="#FFB300"/>
<path d="M642.778 305.806C642.23 308.963 654.599 299.086 656.477 297.834C658.356 296.581 662.923 296.268 665.388 297.09C667.828 297.899 670.098 301.043 670.986 302.205C673.986 306.145 677.861 307.476 675.434 302.857C669.863 292.289 667.137 287.696 674.143 279.464C674.143 279.464 691.039 287.644 690.517 293.842C689.995 300.039 684.867 306.119 679.74 312.459C674.599 318.8 659.896 321.397 653.933 321.945C653.698 327.92 656.804 337.144 661.814 340.902C661.814 340.902 660.3 326.681 662.101 325.715C668.481 322.336 675.147 323.862 680.249 320.705C685.35 317.548 698.997 299.086 701.867 286.705C703.342 280.338 703.655 273.397 701.62 277.337C699.597 281.264 696.27 287.71 696.27 287.71C685.337 272.158 669.772 270.644 656.464 260.546C650.711 256.188 654.194 264.029 661.057 270.866C661.983 271.792 663.875 272.719 663.497 276.02C663.118 279.333 661.787 285.061 658.513 289.197C655.225 293.333 643.326 302.648 642.778 305.806Z" fill="#EDA600"/>
<path d="M671.299 343.289C681.775 343.289 709.5 335.409 719.99 328.611C723.864 326.106 731.223 320.379 736.402 315.278C740.865 310.881 743.213 307.189 749.671 304.514C754.472 302.531 771.981 300.652 771.981 300.652C767.311 300.352 751.38 295.251 743.931 300C740.251 302.348 735.607 306.928 730.688 311.781C726.004 316.413 720.955 320.888 717.863 323.223C706.89 331.521 671.299 343.289 671.299 343.289Z" fill="#EDA600"/>
<defs>
<radialGradient id="paint0_radial_1_992" cx="0" cy="0" r="1" gradientUnits="userSpaceOnUse" gradientTransform="translate(1013.15 207.663) scale(121.039 121.039)">
<stop offset="0.5" stop-color="#FDE030"/>
<stop offset="0.92" stop-color="#F7C02B"/>
<stop offset="1" stop-color="#F4A223"/>
</radialGradient>
</defs>
</svg>
