<!--?xml version="1.0" encoding="UTF-8" standalone="no"?-->
<!-- Created with Inkscape (http://www.inkscape.org/) -->

<svg width="316.2424mm" height="187.51456mm" viewBox="0 0 316.24241 187.51455" version="1.1" id="svg5" inkscape:version="1.1.1 (3bf5ae0d25, 2021-09-20)" sodipodi:docname="c11.svg" xmlns:inkscape="http://www.inkscape.org/namespaces/inkscape" xmlns:sodipodi="http://sodipodi.sourceforge.net/DTD/sodipodi-0.dtd" xmlns="http://www.w3.org/2000/svg" xmlns:svg="http://www.w3.org/2000/svg" style="">
  <sodipodi:namedview id="namedview7" pagecolor="#ffffff" bordercolor="#111111" borderopacity="1" inkscape:pageshadow="0" inkscape:pageopacity="0" inkscape:pagecheckerboard="1" inkscape:document-units="mm" showgrid="false" inkscape:zoom="0.64052329" inkscape:cx="672.10671" inkscape:cy="306.78041" inkscape:window-width="1600" inkscape:window-height="821" inkscape:window-x="1911" inkscape:window-y="-9" inkscape:window-maximized="1" inkscape:current-layer="layer1"></sodipodi:namedview>
  <defs id="defs2">
    <inkscape:path-effect effect="bspline" id="path-effect17189" is_visible="true" lpeversion="1" weight="33.333333" steps="2" helper_size="0" apply_no_weight="true" apply_with_weight="true" only_selected="false"></inkscape:path-effect>
    <inkscape:path-effect effect="bspline" id="path-effect9938" is_visible="true" lpeversion="1" weight="33.333333" steps="2" helper_size="0" apply_no_weight="true" apply_with_weight="true" only_selected="false"></inkscape:path-effect>
    <inkscape:path-effect effect="bspline" id="path-effect1028" is_visible="true" lpeversion="1" weight="33.333333" steps="2" helper_size="0" apply_no_weight="true" apply_with_weight="true" only_selected="false"></inkscape:path-effect>
    <inkscape:path-effect effect="bspline" id="path-effect859" is_visible="true" lpeversion="1" weight="33.333333" steps="2" helper_size="0" apply_no_weight="true" apply_with_weight="true" only_selected="false"></inkscape:path-effect>
  </defs>
  <g inkscape:label="Layer 1" inkscape:groupmode="layer" id="layer1" transform="translate(16.583502,9.6386099)">
    <path style="fill: rgb(68, 82, 116); fill-opacity: 0.5; stroke: none; stroke-width: 1; stroke-linecap: round; stroke-linejoin: round; stroke-miterlimit: 4; stroke-opacity: 1;" d="m 35.69344,37.746321 c 4.502626,-3.917098 10.576983,-9.04958 18.079053,-9.399389 7.50207,-0.34981 16.431204,4.082704 20.084697,10.00247 3.653494,5.919766 2.025674,13.353419 -1.877121,19.373857 C 68.077273,63.743698 61.896733,68.364347 54.488677,68.933629 47.080622,69.502911 38.434798,66.016506 33.370756,61.69886 28.306713,57.381214 26.817355,52.222207 27.538674,48.293639 28.259993,44.36507 31.190814,41.66342 35.69344,37.746321 Z" id="path857" inkscape:path-effect="#path-effect859" inkscape:original-d="m 34.121681,38.961727 c 6.074625,-5.13222 12.148984,-10.2647 18.223079,-15.39745 8.929751,4.43295 17.858887,8.86546 26.787927,13.2978 -1.59429,7.41316 -3.24952,14.84081 -4.87467,22.26082 -6.18052,4.6211 -12.36106,9.24175 -18.541986,13.86222 -8.640686,-3.46912 -17.28129,-6.96847 -25.92233,-10.45311 -1.472797,-5.15489 -2.976172,-10.30985 -4.464655,-15.46517 2.931202,-2.70149 5.862023,-5.40314 8.792635,-8.10511 z" class="IDBMAfsN_0"></path>
    <path style="fill: rgb(221, 42, 43); fill-opacity: 0.5; stroke: none; stroke-width: 0.927132; stroke-linecap: butt; stroke-linejoin: miter; stroke-miterlimit: 4; stroke-opacity: 1;" d="M 55.386248,43.459332 C 59.192426,38.882684 69.966047,38.504777 78.381657,31.513671 86.797267,24.522565 92.854616,10.918624 96.268534,14.909885 99.682452,18.901146 100.4527,40.487426 93.617843,51.866001 86.782982,63.244577 72.343371,64.415276 63.542506,60.613108 54.741641,56.81094 51.58007,48.03598 55.386248,43.459332 Z" id="path9936" inkscape:path-effect="#path-effect9938" inkscape:original-d="m 48.41835,39.260607 c 10.774086,-0.37765 21.547707,-0.75555 32.321407,-1.13374 6.05783,-13.60416 12.11518,-27.2081 18.17242,-40.8126596 0.77053,21.5869296 1.540783,43.1732096 2.310783,64.7596396 -14.439963,1.17092 -28.879573,2.34163 -43.319705,3.51217 -3.161467,-8.77513 -6.323038,-17.55009 -9.484905,-26.32541 z" sodipodi:nodetypes="cccccc" class="IDBMAfsN_1"></path>
    <path style="fill: rgb(138, 166, 120); fill-opacity: 0.5; stroke: none; stroke-width: 1; stroke-linecap: butt; stroke-linejoin: miter; stroke-miterlimit: 4; stroke-opacity: 1;" d="m 44.576478,72.763811 c 1.501704,-8.091947 4.202915,-12.757776 7.294633,-16.194599 3.091718,-3.436824 6.570743,-5.642556 11.820172,-7.284089 5.249428,-1.641533 12.267478,-2.717876 22.306706,0.556652 10.039228,3.274527 23.125701,10.915034 20.163911,15.020256 -2.96179,4.105222 -21.958221,4.682972 -35.246406,10.600111 C 57.62731,81.379282 50.049028,92.634983 46.410781,92.504216 42.772535,92.373449 43.074774,80.855759 44.576478,72.763811 Z" id="path17187" inkscape:path-effect="#path-effect17189" inkscape:original-d="m 43.377026,69.337597 c 2.701455,-4.66556 5.402664,-9.33139 8.10363,-13.99748 3.482369,-2.20742 6.961395,-4.41315 10.441716,-6.62014 7.018385,-1.07609 14.036435,-2.15243 21.054295,-3.22905 13.0605,7.62546 26.146973,15.26596 39.220093,22.89857 -18.99664,0.57803 -37.993073,1.15578 -56.990633,1.73329 C 57.627614,81.379486 50.049329,92.635186 42.47029,103.89136 42.772806,92.373456 43.075046,80.855766 43.377026,69.337597 Z" sodipodi:nodetypes="cccccccc" class="IDBMAfsN_2"></path>
    <text xml:space="preserve" style="font-style:normal;font-weight:normal;font-size:10.5833px;line-height:1.25;font-family:sans-serif;fill:#404d71;fill-opacity:1;stroke:none;stroke-width:0.264583" x="22.457737" y="35.692467" id="text30639"><tspan sodipodi:role="line" id="tspan30637" style="fill:#404d71;fill-opacity:1;stroke-width:0.264583" x="22.457737" y="35.692467">A</tspan></text>
    <text xml:space="preserve" style="font-style:normal;font-weight:normal;font-size:10.5833px;line-height:1.25;font-family:sans-serif;fill:#dd2a2b;fill-opacity:1;stroke:none;stroke-width:0.264583" x="104.10653" y="35.330399" id="text36814"><tspan sodipodi:role="line" id="tspan36812" style="fill:#dd2a2b;fill-opacity:1;stroke-width:0.264583" x="104.10653" y="35.330399">B</tspan></text>
    <text xml:space="preserve" style="font-style:normal;font-weight:normal;font-size:10.5833px;line-height:1.25;font-family:sans-serif;fill:#8aa678;fill-opacity:1;stroke:none;stroke-width:0.264583" x="91.176918" y="83.377388" id="text45309"><tspan sodipodi:role="line" id="tspan45307" style="fill:#8aa678;fill-opacity:1;stroke-width:0.264583" x="91.176918" y="83.377388">C</tspan></text>
    <path style="fill: rgb(153, 153, 153); fill-opacity: 0.6; stroke: none; stroke-width: 1; stroke-linecap: round; stroke-linejoin: round; stroke-miterlimit: 4; stroke-opacity: 1;" d="m 153.93331,42.429949 c -11.34702,-4.575175 -17.01723,-13.634481 -13.07142,-20.884231 2.30776,-4.240123 12.74459,-12.9919116 18.34909,-15.3866136 2.78145,-1.188463 3.5202,-1.325393 7.22879,-1.339908 3.29815,-0.01291 4.75519,0.188034 7.22879,0.996926 2.89617,0.947071 9.04344,4.6261576 9.36758,5.6064066 0.077,0.232865 -1.48803,1.048885 -3.47784,1.813375 -10.00012,3.842081 -11.77141,4.865428 -13.19864,7.625384 -0.8302,1.605426 -0.83889,4.968825 -0.0179,6.91642 l 0.63016,1.494843 -2.59666,2.714194 c -2.74793,2.872308 -4.58116,5.769996 -5.79936,9.166772 -0.4074,1.135952 -0.85121,2.197291 -0.98626,2.35853 -0.13505,0.161238 -1.78041,-0.325704 -3.65636,-1.082098 z" id="path15185-3" class="IDBMAfsN_3"></path>
    <path style="fill: rgb(153, 153, 153); fill-opacity: 0.6; stroke: rgb(174, 95, 0); stroke-width: 1; stroke-linecap: round; stroke-linejoin: round; stroke-miterlimit: 4; stroke-opacity: 1;" d="m 196.98511,22.36948 c -0.82788,-2.724005 -0.90831,-3.684334 -0.45105,-5.385435 0.815,-3.031935 2.75715,-4.407223 10.57726,-7.4900675 l 6.94721,-2.738734 0.78307,0.939768 c 1.47616,1.771579 2.82727,5.3277765 3.04239,8.0078045 l 0.21185,2.639195 h -2.49866 c -4.82783,0 -11.40687,1.737889 -15.65489,4.135321 -1.20321,0.67905 -2.269,1.234638 -2.36841,1.234638 -0.0994,0 -0.36437,-0.60412 -0.58877,-1.34249 z" id="path20587-8" class="IDBMAfsN_4"></path>
    <path style="fill: rgb(153, 153, 153); fill-opacity: 0.6; stroke: none; stroke-width: 1; stroke-linecap: round; stroke-linejoin: round; stroke-miterlimit: 4; stroke-opacity: 1;" d="m 242.94816,20.43843 c -3.02501,-0.631167 -6.71982,-2.795064 -9.1844,-5.378919 -2.71083,-2.842019 -2.76924,-2.661427 1.57834,-4.879795 3.44413,-1.7573692 7.87155,-2.8853832 12.3939,-3.1577032 l 3.99668,-0.240665 -0.38851,1.813933 c -0.54305,2.5354322 -3.33711,8.0611632 -5.2091,10.3018552 -1.52003,1.819421 -1.62066,1.868091 -3.18691,1.541294 z" id="path20902-4" class="IDBMAfsN_5"></path>
    <path style="fill: rgb(153, 153, 153); fill-opacity: 0.6; stroke: rgb(0, 70, 36); stroke-width: 1; stroke-linecap: round; stroke-linejoin: round; stroke-miterlimit: 4; stroke-opacity: 1;" d="m 265.69983,21.197414 c -1.64405,-0.473909 -1.61019,-0.707261 0.8151,-5.618316 1.48071,-2.998322 6.05046,-8.8175682 6.88561,-8.7683242 0.15027,0.0089 0.86585,0.822286 1.59018,1.807612 1.69087,2.3001242 5.56421,4.8814232 8.76222,5.8393762 2.44608,0.732716 2.49099,0.771932 1.79139,1.564251 -1.33388,1.510662 -5.59932,3.998396 -8.2699,4.823253 -2.88564,0.891286 -9.05329,1.078931 -11.5746,0.352148 z" id="path21218-0" class="IDBMAfsN_6"></path>
    <path style="fill: rgb(153, 153, 153); fill-opacity: 0; stroke: rgb(0, 70, 36); stroke-width: 1; stroke-linecap: round; stroke-linejoin: round; stroke-miterlimit: 4; stroke-opacity: 0.95935;" d="m 47.75148,68.530475 c -1.64405,-0.473909 -1.61019,-0.707261 0.8151,-5.618316 1.48071,-2.998322 6.05046,-8.817568 6.88561,-8.768324 0.15027,0.0089 0.86585,0.822286 1.59018,1.807612 1.69087,2.300124 5.56421,4.881423 8.76222,5.839376 2.44608,0.732716 2.49099,0.771932 1.79139,1.564251 -1.33388,1.510662 -5.59932,3.998396 -8.2699,4.823253 -2.88564,0.891286 -9.05329,1.078931 -11.5746,0.352148 z" id="path21218-0-9" class="IDBMAfsN_7"></path>
    <path style="fill: rgb(153, 153, 153); fill-opacity: 0.6; stroke: none; stroke-width: 1; stroke-linecap: round; stroke-linejoin: round; stroke-miterlimit: 4; stroke-opacity: 1;" d="m 169.70616,78.470852 c -2.15903,-1.152284 -8.44907,-3.137273 -12.00005,-3.786934 l -3.69675,-0.676327 v -1.513026 c 0,-3.206776 -2.12125,-8.754901 -3.72668,-9.747109 -0.25999,-0.160682 0.65286,-0.929251 2.12638,-1.790285 3.73585,-2.183011 7.31098,-5.676371 12.57757,-12.289906 2.55095,-3.203358 5.1567,-6.232226 5.79056,-6.730816 3.78236,-2.97521 5.82109,2.849357 5.40666,15.446622 -0.25789,7.838874 -1.05743,12.20316 -3.16162,17.257641 -1.75563,4.217207 -2.01958,4.522084 -3.31607,3.83014 z" id="path23602-1" class="IDBMAfsN_8"></path>
    <path style="fill: rgb(153, 153, 153); fill-opacity: 0.6; stroke: rgb(174, 95, 0); stroke-width: 1; stroke-linecap: round; stroke-linejoin: round; stroke-miterlimit: 4; stroke-opacity: 1;" d="m 197.97748,48.317143 c -0.77711,-2.322851 -0.65637,-5.116507 0.29127,-6.739088 1.23401,-2.112917 3.44253,-3.412529 10.41332,-6.127752 l 6.32623,-2.464157 1.22683,1.934101 c 1.4853,2.341576 2.43712,5.384808 2.43712,7.792106 v 1.783858 h -2.23557 c -4.56976,0 -11.23967,1.792007 -15.39179,4.135321 -1.20321,0.67905 -2.269,1.234638 -2.36842,1.234638 -0.0994,0 -0.41396,-0.697063 -0.69899,-1.549027 z" id="path23826-6" class="IDBMAfsN_9"></path>
    <path style="fill: rgb(153, 153, 153); fill-opacity: 0; stroke: rgb(174, 95, 0); stroke-width: 1; stroke-linecap: round; stroke-linejoin: round; stroke-miterlimit: 4; stroke-opacity: 1;" d="m 54.903273,51.84328 c -0.77711,-2.322851 -0.65637,-5.116507 0.29127,-6.739088 1.23401,-2.112917 3.44253,-3.412529 10.41332,-6.127752 l 6.32623,-2.464157 1.22683,1.934101 c 1.4853,2.341576 2.43712,5.384808 2.43712,7.792106 v 1.783858 h -2.23557 c -4.56976,0 -11.23967,1.792007 -15.39179,4.135321 -1.20321,0.67905 -2.269,1.234638 -2.36842,1.234638 -0.0994,0 -0.41396,-0.697063 -0.69899,-1.549027 z" id="path23826-6-6" class="IDBMAfsN_10"></path>
    <path style="fill: rgb(153, 153, 153); fill-opacity: 0.6; stroke: none; stroke-width: 1; stroke-linecap: round; stroke-linejoin: round; stroke-miterlimit: 4; stroke-opacity: 1;" d="m 241.64848,48.371393 c -3.01303,-0.628666 -6.72025,-2.795502 -9.16131,-5.354706 l -2.34376,-2.457185 2.29696,-1.209681 c 4.13788,-2.179185 9.55771,-3.744814 13.85017,-4.000907 l 3.92001,-0.23387 -0.25862,1.613566 c -0.35062,2.18757 -3.19281,7.798861 -5.11654,10.10149 -1.52004,1.819421 -1.62067,1.868091 -3.18691,1.541293 z" id="path24004-1" class="IDBMAfsN_11"></path>
    <path style="fill: rgb(153, 153, 153); fill-opacity: 0.6; stroke: rgb(153, 0, 153); stroke-width: 1; stroke-linecap: round; stroke-linejoin: round; stroke-miterlimit: 4; stroke-opacity: 1;" d="m 120.61237,81.670482 c -0.64308,-0.16737 -0.5583,-0.430734 0.6829,-2.121588 1.8644,-2.53982 4.20766,-7.246996 4.82186,-9.686208 0.27391,-1.087797 0.73127,-1.949783 1.03453,-1.949783 2.11615,0 12.8022,3.048661 14.98817,4.276029 0.96494,0.541795 0.96378,0.544121 -1.51706,3.024962 -2.99761,2.997605 -7.18069,5.173443 -11.72016,6.096265 -3.02822,0.615598 -6.69676,0.775046 -8.29024,0.360323 z" id="path24182-1" class="IDBMAfsN_12"></path>
    <path style="fill: rgb(153, 153, 153); fill-opacity: 0.6; stroke: none; stroke-width: 1; stroke-linecap: round; stroke-linejoin: round; stroke-miterlimit: 4; stroke-opacity: 1;" d="m 143.26788,121.10063 c -1.42092,-2.16717 -1.17661,-14.25 0.41592,-20.56933 0.42622,-1.691305 0.66862,-2.042597 1.33838,-1.939616 0.44984,0.06916 2.68985,0.23146 4.9778,0.360656 5.93682,0.335235 9.74687,-0.854969 14.60054,-4.560996 l 2.23751,-1.708449 4.57821,-0.02892 c 7.77772,-0.04912 12.85242,-2.011331 17.64384,-6.822263 l 2.73879,-2.749939 2.83771,1.500243 c 3.93189,2.078718 6.27663,3.764367 8.32038,5.981576 3.76114,4.080348 1.80531,5.665033 -10.23303,8.291176 -19.41462,4.235272 -23.28036,5.585022 -31.21622,10.899372 -2.02868,1.35853 -6.06715,4.53078 -8.9744,7.04946 -2.90724,2.51867 -5.6368,4.76721 -6.06568,4.99674 -1.32457,0.70889 -2.43545,0.46596 -3.19975,-0.69971 z" id="path25468-5" class="IDBMAfsN_13"></path>
    <path style="fill: rgb(153, 153, 153); fill-opacity: 0.6; stroke: none; stroke-width: 1; stroke-linecap: round; stroke-linejoin: round; stroke-miterlimit: 4; stroke-opacity: 1;" d="m 239.35354,92.345111 c -2.87711,-1.02827 -6.33657,-3.41558 -8.12778,-5.60885 l -1.3886,-1.70027 2.80284,-1.47285 c 3.82435,-2.009643 8.21583,-3.183676 12.98212,-3.470685 l 3.99668,-0.240665 -0.38852,1.813933 c -0.50845,2.373907 -3.29393,8.009577 -4.92882,9.972137 -1.4746,1.77014 -1.83129,1.82113 -4.94792,0.70725 z" id="path25721-1" class="IDBMAfsN_14"></path>
    <path style="fill: rgb(153, 153, 153); fill-opacity: 0.6; stroke: rgb(153, 0, 153); stroke-width: 1; stroke-linecap: round; stroke-linejoin: round; stroke-miterlimit: 4; stroke-opacity: 1;" d="m 111.01986,102.76634 c 1.69441,-1.88162 4.55616,-7.501811 5.35357,-10.513844 l 0.5172,-1.953643 1.67216,0.235153 c 2.67129,0.375661 7.45838,1.724607 11.08931,3.124843 l 3.35796,1.294969 -2.90899,2.724213 c -4.91614,4.603869 -8.50159,6.039889 -16.26878,6.515849 l -4.33727,0.26578 z" id="path25760-5" class="IDBMAfsN_15"></path>
    <path style="fill: rgb(153, 153, 153); fill-opacity: 0; stroke: rgb(153, 0, 153); stroke-width: 1; stroke-linecap: round; stroke-linejoin: round; stroke-miterlimit: 4; stroke-opacity: 1;" d="m 70.25644,61.019002 c 1.69441,-1.88162 4.55616,-7.501811 5.35357,-10.513844 l 0.5172,-1.953643 1.67216,0.235153 c 2.67129,0.375661 7.45838,1.724607 11.08931,3.124843 l 3.35796,1.294969 -2.90899,2.724213 c -4.91614,4.603869 -8.50159,6.039889 -16.26878,6.515849 l -4.33727,0.26578 z" id="path25760-5-6" class="IDBMAfsN_16"></path>
    <path style="fill: rgb(153, 153, 153); fill-opacity: 0.6; stroke: rgb(0, 92, 47); stroke-width: 1; stroke-linecap: round; stroke-linejoin: round; stroke-miterlimit: 4; stroke-opacity: 0.979675;" d="m 267.57609,91.872393 c -1.88783,-0.22176 -1.87026,-0.37815 0.60586,-5.39213 1.48071,-2.99833 6.05046,-8.81757 6.88561,-8.76833 0.15027,0.009 0.86585,0.82229 1.59018,1.80762 1.69017,2.29917 5.56386,4.88131 8.75844,5.83824 l 2.50518,0.75042 -2.70238,1.97014 c -4.05626,2.95717 -6.54512,3.78181 -11.73704,3.88887 -2.3855,0.0492 -5.04313,0.007 -5.90585,-0.0948 z" id="path25682-1" class="IDBMAfsN_17"></path>
  </g>
<style data-made-with="vivus-instant">.IDBMAfsN_0{stroke-dasharray:138 140;stroke-dashoffset:139;animation:IDBMAfsN_draw_0 7200ms linear 0ms infinite,IDBMAfsN_fade 7200ms linear 0ms infinite;}.IDBMAfsN_1{stroke-dasharray:146 148;stroke-dashoffset:147;animation:IDBMAfsN_draw_1 7200ms linear 0ms infinite,IDBMAfsN_fade 7200ms linear 0ms infinite;}.IDBMAfsN_2{stroke-dasharray:170 172;stroke-dashoffset:171;animation:IDBMAfsN_draw_2 7200ms linear 0ms infinite,IDBMAfsN_fade 7200ms linear 0ms infinite;}.IDBMAfsN_3{stroke-dasharray:128 130;stroke-dashoffset:129;animation:IDBMAfsN_draw_3 7200ms linear 0ms infinite,IDBMAfsN_fade 7200ms linear 0ms infinite;}.IDBMAfsN_4{stroke-dasharray:62 64;stroke-dashoffset:63;animation:IDBMAfsN_draw_4 7200ms linear 0ms infinite,IDBMAfsN_fade 7200ms linear 0ms infinite;}.IDBMAfsN_5{stroke-dasharray:53 55;stroke-dashoffset:54;animation:IDBMAfsN_draw_5 7200ms linear 0ms infinite,IDBMAfsN_fade 7200ms linear 0ms infinite;}.IDBMAfsN_6{stroke-dasharray:56 58;stroke-dashoffset:57;animation:IDBMAfsN_draw_6 7200ms linear 0ms infinite,IDBMAfsN_fade 7200ms linear 0ms infinite;}.IDBMAfsN_7{stroke-dasharray:56 58;stroke-dashoffset:57;animation:IDBMAfsN_draw_7 7200ms linear 0ms infinite,IDBMAfsN_fade 7200ms linear 0ms infinite;}.IDBMAfsN_8{stroke-dasharray:102 104;stroke-dashoffset:103;animation:IDBMAfsN_draw_8 7200ms linear 0ms infinite,IDBMAfsN_fade 7200ms linear 0ms infinite;}.IDBMAfsN_9{stroke-dasharray:62 64;stroke-dashoffset:63;animation:IDBMAfsN_draw_9 7200ms linear 0ms infinite,IDBMAfsN_fade 7200ms linear 0ms infinite;}.IDBMAfsN_10{stroke-dasharray:62 64;stroke-dashoffset:63;animation:IDBMAfsN_draw_10 7200ms linear 0ms infinite,IDBMAfsN_fade 7200ms linear 0ms infinite;}.IDBMAfsN_11{stroke-dasharray:53 55;stroke-dashoffset:54;animation:IDBMAfsN_draw_11 7200ms linear 0ms infinite,IDBMAfsN_fade 7200ms linear 0ms infinite;}.IDBMAfsN_12{stroke-dasharray:58 60;stroke-dashoffset:59;animation:IDBMAfsN_draw_12 7200ms linear 0ms infinite,IDBMAfsN_fade 7200ms linear 0ms infinite;}.IDBMAfsN_13{stroke-dasharray:162 164;stroke-dashoffset:163;animation:IDBMAfsN_draw_13 7200ms linear 0ms infinite,IDBMAfsN_fade 7200ms linear 0ms infinite;}.IDBMAfsN_14{stroke-dasharray:52 54;stroke-dashoffset:53;animation:IDBMAfsN_draw_14 7200ms linear 0ms infinite,IDBMAfsN_fade 7200ms linear 0ms infinite;}.IDBMAfsN_15{stroke-dasharray:60 62;stroke-dashoffset:61;animation:IDBMAfsN_draw_15 7200ms linear 0ms infinite,IDBMAfsN_fade 7200ms linear 0ms infinite;}.IDBMAfsN_16{stroke-dasharray:60 62;stroke-dashoffset:61;animation:IDBMAfsN_draw_16 7200ms linear 0ms infinite,IDBMAfsN_fade 7200ms linear 0ms infinite;}.IDBMAfsN_17{stroke-dasharray:56 58;stroke-dashoffset:57;animation:IDBMAfsN_draw_17 7200ms linear 0ms infinite,IDBMAfsN_fade 7200ms linear 0ms infinite;}@keyframes IDBMAfsN_draw{100%{stroke-dashoffset:0;}}@keyframes IDBMAfsN_fade{0%{stroke-opacity:1;}94.44444444444444%{stroke-opacity:1;}100%{stroke-opacity:0;}}@keyframes IDBMAfsN_draw_0{11.11111111111111%{stroke-dashoffset: 139}38.88888888888889%{ stroke-dashoffset: 0;}100%{ stroke-dashoffset: 0;}}@keyframes IDBMAfsN_draw_1{11.928104575163399%{stroke-dashoffset: 147}39.70588235294118%{ stroke-dashoffset: 0;}100%{ stroke-dashoffset: 0;}}@keyframes IDBMAfsN_draw_2{12.745098039215685%{stroke-dashoffset: 171}40.52287581699346%{ stroke-dashoffset: 0;}100%{ stroke-dashoffset: 0;}}@keyframes IDBMAfsN_draw_3{13.562091503267974%{stroke-dashoffset: 129}41.33986928104576%{ stroke-dashoffset: 0;}100%{ stroke-dashoffset: 0;}}@keyframes IDBMAfsN_draw_4{14.37908496732026%{stroke-dashoffset: 63}42.15686274509803%{ stroke-dashoffset: 0;}100%{ stroke-dashoffset: 0;}}@keyframes IDBMAfsN_draw_5{15.196078431372548%{stroke-dashoffset: 54}42.97385620915033%{ stroke-dashoffset: 0;}100%{ stroke-dashoffset: 0;}}@keyframes IDBMAfsN_draw_6{16.013071895424837%{stroke-dashoffset: 57}43.790849673202615%{ stroke-dashoffset: 0;}100%{ stroke-dashoffset: 0;}}@keyframes IDBMAfsN_draw_7{16.83006535947712%{stroke-dashoffset: 57}44.6078431372549%{ stroke-dashoffset: 0;}100%{ stroke-dashoffset: 0;}}@keyframes IDBMAfsN_draw_8{17.64705882352941%{stroke-dashoffset: 103}45.42483660130719%{ stroke-dashoffset: 0;}100%{ stroke-dashoffset: 0;}}@keyframes IDBMAfsN_draw_9{18.4640522875817%{stroke-dashoffset: 63}46.24183006535948%{ stroke-dashoffset: 0;}100%{ stroke-dashoffset: 0;}}@keyframes IDBMAfsN_draw_10{19.28104575163399%{stroke-dashoffset: 63}47.05882352941176%{ stroke-dashoffset: 0;}100%{ stroke-dashoffset: 0;}}@keyframes IDBMAfsN_draw_11{20.098039215686274%{stroke-dashoffset: 54}47.875816993464056%{ stroke-dashoffset: 0;}100%{ stroke-dashoffset: 0;}}@keyframes IDBMAfsN_draw_12{20.915032679738562%{stroke-dashoffset: 59}48.69281045751634%{ stroke-dashoffset: 0;}100%{ stroke-dashoffset: 0;}}@keyframes IDBMAfsN_draw_13{21.732026143790847%{stroke-dashoffset: 163}49.509803921568626%{ stroke-dashoffset: 0;}100%{ stroke-dashoffset: 0;}}@keyframes IDBMAfsN_draw_14{22.54901960784314%{stroke-dashoffset: 53}50.326797385620914%{ stroke-dashoffset: 0;}100%{ stroke-dashoffset: 0;}}@keyframes IDBMAfsN_draw_15{23.366013071895424%{stroke-dashoffset: 61}51.143790849673195%{ stroke-dashoffset: 0;}100%{ stroke-dashoffset: 0;}}@keyframes IDBMAfsN_draw_16{24.183006535947708%{stroke-dashoffset: 61}51.96078431372548%{ stroke-dashoffset: 0;}100%{ stroke-dashoffset: 0;}}@keyframes IDBMAfsN_draw_17{25%{stroke-dashoffset: 57}52.77777777777778%{ stroke-dashoffset: 0;}100%{ stroke-dashoffset: 0;}}</style></svg>
