<!--?xml version="1.0" encoding="UTF-8" standalone="no"?-->
<!-- Created with Inkscape (http://www.inkscape.org/) -->

<svg width="316.2424mm" height="187.51456mm" viewBox="0 0 316.24241 187.51455" version="1.1" id="svg5" inkscape:version="1.1.1 (3bf5ae0d25, 2021-09-20)" sodipodi:docname="c20.svg" xmlns:inkscape="http://www.inkscape.org/namespaces/inkscape" xmlns:sodipodi="http://sodipodi.sourceforge.net/DTD/sodipodi-0.dtd" xmlns="http://www.w3.org/2000/svg" xmlns:svg="http://www.w3.org/2000/svg" style="">
  <sodipodi:namedview id="namedview7" pagecolor="#ffffff" bordercolor="#111111" borderopacity="1" inkscape:pageshadow="0" inkscape:pageopacity="0" inkscape:pagecheckerboard="1" inkscape:document-units="mm" showgrid="false" inkscape:zoom="0.64052329" inkscape:cx="790.75969" inkscape:cy="331.75999" inkscape:window-width="1600" inkscape:window-height="821" inkscape:window-x="1911" inkscape:window-y="-9" inkscape:window-maximized="1" inkscape:current-layer="layer1"></sodipodi:namedview>
  <defs id="defs2">
    <inkscape:path-effect effect="bspline" id="path-effect50210" is_visible="true" lpeversion="1" weight="33.333333" steps="2" helper_size="0" apply_no_weight="true" apply_with_weight="true" only_selected="false"></inkscape:path-effect>
    <inkscape:path-effect effect="bspline" id="path-effect50206" is_visible="true" lpeversion="1" weight="33.333333" steps="2" helper_size="0" apply_no_weight="true" apply_with_weight="true" only_selected="false"></inkscape:path-effect>
    <inkscape:path-effect effect="bspline" id="path-effect50202" is_visible="true" lpeversion="1" weight="33.333333" steps="2" helper_size="0" apply_no_weight="true" apply_with_weight="true" only_selected="false"></inkscape:path-effect>
    <inkscape:path-effect effect="bspline" id="path-effect45874" is_visible="true" lpeversion="1" weight="33.333333" steps="2" helper_size="0" apply_no_weight="true" apply_with_weight="true" only_selected="false"></inkscape:path-effect>
    <inkscape:path-effect effect="bspline" id="path-effect45870" is_visible="true" lpeversion="1" weight="33.333333" steps="2" helper_size="0" apply_no_weight="true" apply_with_weight="true" only_selected="false"></inkscape:path-effect>
    <inkscape:path-effect effect="bspline" id="path-effect45866" is_visible="true" lpeversion="1" weight="33.333333" steps="2" helper_size="0" apply_no_weight="true" apply_with_weight="true" only_selected="false"></inkscape:path-effect>
    <inkscape:path-effect effect="bspline" id="path-effect36099" is_visible="true" lpeversion="1" weight="33.333333" steps="2" helper_size="0" apply_no_weight="true" apply_with_weight="true" only_selected="false"></inkscape:path-effect>
    <inkscape:path-effect effect="bspline" id="path-effect36095" is_visible="true" lpeversion="1" weight="33.333333" steps="2" helper_size="0" apply_no_weight="true" apply_with_weight="true" only_selected="false"></inkscape:path-effect>
    <inkscape:path-effect effect="bspline" id="path-effect36091" is_visible="true" lpeversion="1" weight="33.333333" steps="2" helper_size="0" apply_no_weight="true" apply_with_weight="true" only_selected="false"></inkscape:path-effect>
    <inkscape:path-effect effect="bspline" id="path-effect35657" is_visible="true" lpeversion="1" weight="33.333333" steps="2" helper_size="0" apply_no_weight="true" apply_with_weight="true" only_selected="false"></inkscape:path-effect>
    <inkscape:path-effect effect="bspline" id="path-effect17189" is_visible="true" lpeversion="1" weight="33.333333" steps="2" helper_size="0" apply_no_weight="true" apply_with_weight="true" only_selected="false"></inkscape:path-effect>
    <inkscape:path-effect effect="bspline" id="path-effect9938" is_visible="true" lpeversion="1" weight="33.333333" steps="2" helper_size="0" apply_no_weight="true" apply_with_weight="true" only_selected="false"></inkscape:path-effect>
    <inkscape:path-effect effect="bspline" id="path-effect1028" is_visible="true" lpeversion="1" weight="33.333333" steps="2" helper_size="0" apply_no_weight="true" apply_with_weight="true" only_selected="false"></inkscape:path-effect>
    <inkscape:path-effect effect="bspline" id="path-effect859" is_visible="true" lpeversion="1" weight="33.333333" steps="2" helper_size="0" apply_no_weight="true" apply_with_weight="true" only_selected="false"></inkscape:path-effect>
  </defs>
  <g inkscape:label="Layer 1" inkscape:groupmode="layer" id="layer1" transform="translate(16.583502,9.6386099)" style="display:inline">
    <path style="fill: rgb(68, 82, 116); fill-opacity: 0.5; stroke: none; stroke-width: 1; stroke-linecap: round; stroke-linejoin: round; stroke-miterlimit: 4; stroke-opacity: 1;" d="m 35.69344,37.746321 c 4.502626,-3.917098 10.576983,-9.04958 18.079053,-9.399389 7.50207,-0.34981 16.431204,4.082704 20.084697,10.00247 3.653494,5.919766 2.025674,13.353419 -1.877121,19.373857 C 68.077273,63.743698 61.896733,68.364347 54.488677,68.933629 47.080622,69.502911 38.434798,66.016506 33.370756,61.69886 28.306713,57.381214 26.817355,52.222207 27.538674,48.293639 28.259993,44.36507 31.190814,41.66342 35.69344,37.746321 Z" id="path857" inkscape:original-d="m 34.121681,38.961727 c 6.074625,-5.13222 12.148984,-10.2647 18.223079,-15.39745 8.929751,4.43295 17.858887,8.86546 26.787927,13.2978 -1.59429,7.41316 -3.24952,14.84081 -4.87467,22.26082 -6.18052,4.6211 -12.36106,9.24175 -18.541986,13.86222 -8.640686,-3.46912 -17.28129,-6.96847 -25.92233,-10.45311 -1.472797,-5.15489 -2.976172,-10.30985 -4.464655,-15.46517 2.931202,-2.70149 5.862023,-5.40314 8.792635,-8.10511 z" inkscape:path-effect="#path-effect859" class="xJqCoksD_0"></path>
    <path style="fill: rgb(221, 42, 43); fill-opacity: 0.5; stroke: none; stroke-width: 0.927132; stroke-linecap: butt; stroke-linejoin: miter; stroke-miterlimit: 4; stroke-opacity: 1;" d="M 55.386248,43.459332 C 59.192426,38.882684 69.966047,38.504777 78.381657,31.513671 86.797267,24.522565 92.854616,10.918624 96.268534,14.909885 99.682452,18.901146 100.4527,40.487426 93.617843,51.866001 86.782982,63.244577 72.343371,64.415276 63.542506,60.613108 54.741641,56.81094 51.58007,48.03598 55.386248,43.459332 Z" id="path9936" sodipodi:nodetypes="cccccc" inkscape:original-d="m 48.41835,39.260607 c 10.774086,-0.37765 21.547707,-0.75555 32.321407,-1.13374 6.05783,-13.60416 12.11518,-27.2081 18.17242,-40.8126596 0.77053,21.5869296 1.540783,43.1732096 2.310783,64.7596396 -14.439963,1.17092 -28.879573,2.34163 -43.319705,3.51217 -3.161467,-8.77513 -6.323038,-17.55009 -9.484905,-26.32541 z" inkscape:path-effect="#path-effect9938" class="xJqCoksD_1"></path>
    <path style="fill: rgb(138, 166, 120); fill-opacity: 0.5; stroke: none; stroke-width: 1; stroke-linecap: butt; stroke-linejoin: miter; stroke-miterlimit: 4; stroke-opacity: 1;" d="m 44.576478,72.763811 c 1.501704,-8.091947 4.202915,-12.757776 7.294633,-16.194599 3.091718,-3.436824 6.570743,-5.642556 11.820172,-7.284089 5.249428,-1.641533 12.267478,-2.717876 22.306706,0.556652 10.039228,3.274527 23.125701,10.915034 20.163911,15.020256 -2.96179,4.105222 -21.958221,4.682972 -35.246406,10.600111 C 57.62731,81.379282 50.049028,92.634983 46.410781,92.504216 42.772535,92.373449 43.074774,80.855759 44.576478,72.763811 Z" id="path17187" sodipodi:nodetypes="cccccccc" inkscape:original-d="m 43.377026,69.337597 c 2.701455,-4.66556 5.402664,-9.33139 8.10363,-13.99748 3.482369,-2.20742 6.961395,-4.41315 10.441716,-6.62014 7.018385,-1.07609 14.036435,-2.15243 21.054295,-3.22905 13.0605,7.62546 26.146973,15.26596 39.220093,22.89857 -18.99664,0.57803 -37.993073,1.15578 -56.990633,1.73329 C 57.627614,81.379486 50.049329,92.635186 42.47029,103.89136 42.772806,92.373456 43.075046,80.855766 43.377026,69.337597 Z" inkscape:path-effect="#path-effect17189" class="xJqCoksD_2"></path>
    <text xml:space="preserve" style="font-style:normal;font-weight:normal;font-size:10.5833px;line-height:1.25;font-family:sans-serif;fill:#404d71;fill-opacity:1;stroke:none;stroke-width:0.264583" x="22.457737" y="35.692467" id="text30639"><tspan sodipodi:role="line" id="tspan30637" style="fill:#404d71;fill-opacity:1;stroke-width:0.264583" x="22.457737" y="35.692467">A</tspan></text>
    <text xml:space="preserve" style="font-style:normal;font-weight:normal;font-size:10.5833px;line-height:1.25;font-family:sans-serif;fill:#dd2a2b;fill-opacity:1;stroke:none;stroke-width:0.264583" x="104.10653" y="35.330399" id="text36814"><tspan sodipodi:role="line" id="tspan36812" style="fill:#dd2a2b;fill-opacity:1;stroke-width:0.264583" x="104.10653" y="35.330399">B</tspan></text>
    <text xml:space="preserve" style="font-style:normal;font-weight:normal;font-size:10.5833px;line-height:1.25;font-family:sans-serif;fill:#8aa678;fill-opacity:1;stroke:none;stroke-width:0.264583" x="91.176918" y="83.377388" id="text45309"><tspan sodipodi:role="line" id="tspan45307" style="fill:#8aa678;fill-opacity:1;stroke-width:0.264583" x="91.176918" y="83.377388">C</tspan></text>
    <path style="fill: rgb(153, 153, 153); fill-opacity: 0.6; stroke: rgb(0, 0, 0); stroke-width: 1; stroke-linecap: round; stroke-linejoin: round; stroke-miterlimit: 4; stroke-opacity: 1;" d="m 153.93331,42.429949 c -11.34702,-4.575175 -17.01723,-13.634481 -13.07142,-20.884231 2.30776,-4.240123 12.74459,-12.9919116 18.34909,-15.3866136 2.78145,-1.188463 3.5202,-1.325393 7.22879,-1.339908 3.29815,-0.01291 4.75519,0.188034 7.22879,0.996926 2.89617,0.947071 9.04344,4.6261576 9.36758,5.6064066 0.077,0.232865 -1.48803,1.048885 -3.47784,1.813375 -10.00012,3.842081 -11.77141,4.865428 -13.19864,7.625384 -0.8302,1.605426 -0.83889,4.968825 -0.0179,6.91642 l 0.63016,1.494843 -2.59666,2.714194 c -2.74793,2.872308 -4.58116,5.769996 -5.79936,9.166772 -0.4074,1.135952 -0.85121,2.197291 -0.98626,2.35853 -0.13505,0.161238 -1.78041,-0.325704 -3.65636,-1.082098 z" id="path15185-3" class="xJqCoksD_3"></path>
    <path style="display: inline; fill: none; fill-opacity: 1; stroke: rgb(0, 0, 0); stroke-width: 1; stroke-linecap: round; stroke-linejoin: round; stroke-miterlimit: 4; stroke-opacity: 1;" d="m 41.566466,66.012198 c -11.34702,-4.575175 -17.01723,-13.634481 -13.07142,-20.884231 2.30776,-4.240123 12.74459,-12.991912 18.34909,-15.386614 2.78145,-1.188463 3.5202,-1.325393 7.22879,-1.339908 3.29815,-0.01291 4.75519,0.188034 7.22879,0.996926 2.89617,0.947071 9.04344,4.626158 9.36758,5.606407 0.077,0.232865 -1.48803,1.048885 -3.47784,1.813375 -10.00012,3.842081 -11.77141,4.865428 -13.19864,7.625384 -0.8302,1.605426 -0.83889,4.968825 -0.0179,6.91642 l 0.63016,1.494843 -2.59666,2.714194 c -2.74793,2.872308 -4.58116,5.769996 -5.79936,9.166772 -0.4074,1.135952 -0.85121,2.197291 -0.98626,2.35853 -0.13505,0.161238 -1.78041,-0.325704 -3.65636,-1.082098 z" id="path15185-3-9" class="xJqCoksD_4"></path>
    <path style="fill: rgb(153, 153, 153); fill-opacity: 0.6; stroke: rgb(0, 0, 0); stroke-width: 1; stroke-linecap: round; stroke-linejoin: round; stroke-miterlimit: 4; stroke-opacity: 1;" d="m 265.69983,21.197414 c -1.64405,-0.473909 -1.61019,-0.707261 0.8151,-5.618316 1.48071,-2.998322 6.05046,-8.8175682 6.88561,-8.7683242 0.15027,0.0089 0.86585,0.822286 1.59018,1.807612 1.69087,2.3001242 5.56421,4.8814232 8.76222,5.8393762 2.44608,0.732716 2.49099,0.771932 1.79139,1.564251 -1.33388,1.510662 -5.59932,3.998396 -8.2699,4.823253 -2.88564,0.891286 -9.05329,1.078931 -11.5746,0.352148 z" id="path21218-0" class="xJqCoksD_5"></path>
    <path style="display: inline; fill: none; fill-opacity: 1; stroke: rgb(0, 0, 0); stroke-width: 1; stroke-linecap: round; stroke-linejoin: round; stroke-miterlimit: 4; stroke-opacity: 1;" d="m 46.858136,68.128866 c -1.64405,-0.473909 -1.61019,-0.707261 0.8151,-5.618316 1.48071,-2.998322 6.05046,-8.817568 6.88561,-8.768324 0.15027,0.0089 0.86585,0.822286 1.59018,1.807612 1.69087,2.300124 5.56421,4.881423 8.76222,5.839376 2.44608,0.732716 2.49099,0.771932 1.79139,1.564251 -1.33388,1.510662 -5.59932,3.998396 -8.2699,4.823253 -2.88564,0.891286 -9.05329,1.078931 -11.5746,0.352148 z" id="path21218-0-2" class="xJqCoksD_6"></path>
    <path style="fill: rgb(153, 153, 153); fill-opacity: 0.6; stroke: rgb(0, 0, 0); stroke-width: 1; stroke-linecap: round; stroke-linejoin: round; stroke-miterlimit: 4; stroke-opacity: 1;" d="m 169.70616,78.470852 c -2.15903,-1.152284 -8.44907,-3.137273 -12.00005,-3.786934 l -3.69675,-0.676327 v -1.513026 c 0,-3.206776 -2.12125,-8.754901 -3.72668,-9.747109 -0.25999,-0.160682 0.65286,-0.929251 2.12638,-1.790285 3.73585,-2.183011 7.31098,-5.676371 12.57757,-12.289906 2.55095,-3.203358 5.1567,-6.232226 5.79056,-6.730816 3.78236,-2.97521 5.82109,2.849357 5.40666,15.446622 -0.25789,7.838874 -1.05743,12.20316 -3.16162,17.257641 -1.75563,4.217207 -2.01958,4.522084 -3.31607,3.83014 z" id="path23602-1" class="xJqCoksD_7"></path>
    <path style="display: inline; fill: none; fill-opacity: 1; stroke: rgb(0, 0, 0); stroke-width: 1; stroke-linecap: round; stroke-linejoin: round; stroke-miterlimit: 4; stroke-opacity: 1;" d="M 92.05498,51.90963 C 89.89595,50.757346 83.60591,48.772357 80.05493,48.122696 l -3.69675,-0.676327 v -1.513026 c 0,-3.206776 -2.12125,-8.754901 -3.72668,-9.747109 -0.25999,-0.160682 0.65286,-0.929251 2.12638,-1.790285 3.73585,-2.183011 7.31098,-5.676371 12.57757,-12.289906 2.55095,-3.203358 5.1567,-6.232226 5.79056,-6.730816 3.78236,-2.97521 5.82109,2.849357 5.40666,15.446622 -0.25789,7.838874 -1.05743,12.20316 -3.16162,17.257641 -1.75563,4.217207 -2.01958,4.522084 -3.31607,3.83014 z" id="path23602-1-0" class="xJqCoksD_8"></path>
    <path style="fill: rgb(153, 153, 153); fill-opacity: 0.6; stroke: rgb(0, 0, 0); stroke-width: 1; stroke-linecap: round; stroke-linejoin: round; stroke-miterlimit: 4; stroke-opacity: 1;" d="m 197.97748,48.317143 c -0.77711,-2.322851 -0.65637,-5.116507 0.29127,-6.739088 1.23401,-2.112917 3.44253,-3.412529 10.41332,-6.127752 l 6.32623,-2.464157 1.22683,1.934101 c 1.4853,2.341576 2.43712,5.384808 2.43712,7.792106 v 1.783858 h -2.23557 c -4.56976,0 -11.23967,1.792007 -15.39179,4.135321 -1.20321,0.67905 -2.269,1.234638 -2.36842,1.234638 -0.0994,0 -0.41396,-0.697063 -0.69899,-1.549027 z" id="path23826-6" class="xJqCoksD_9"></path>
    <path style="display: inline; fill: none; fill-opacity: 1; stroke: rgb(0, 0, 0); stroke-width: 1; stroke-linecap: round; stroke-linejoin: round; stroke-miterlimit: 4; stroke-opacity: 1;" d="m 54.605076,51.267299 c -0.77711,-2.32285 -0.65637,-5.1165 0.29127,-6.73909 1.23401,-2.11291 3.44253,-3.41252 10.41332,-6.12775 l 6.32623,-2.46415 1.22683,1.9341 c 1.4853,2.34157 2.43712,5.3848 2.43712,7.7921 v 1.78386 h -2.23557 c -4.56976,0 -11.23967,1.79201 -15.39179,4.13532 -1.20321,0.67905 -2.269,1.23464 -2.36842,1.23464 -0.0994,0 -0.41396,-0.69706 -0.69899,-1.54903 z" id="path23826-6-9" class="xJqCoksD_10"></path>
    <path style="fill: rgb(153, 153, 153); fill-opacity: 0.6; stroke: rgb(0, 0, 0); stroke-width: 1; stroke-linecap: round; stroke-linejoin: round; stroke-miterlimit: 4; stroke-opacity: 1;" d="m 143.26788,121.10063 c -1.42092,-2.16717 -1.17661,-14.25 0.41592,-20.56933 0.42622,-1.691305 0.66862,-2.042597 1.33838,-1.939616 0.44984,0.06916 2.68985,0.23146 4.9778,0.360656 5.93682,0.335235 9.74687,-0.854969 14.60054,-4.560996 l 2.23751,-1.708449 4.57821,-0.02892 c 7.77772,-0.04912 12.85242,-2.011331 17.64384,-6.822263 l 2.73879,-2.749939 2.83771,1.500243 c 3.93189,2.078718 6.27663,3.764367 8.32038,5.981576 3.76114,4.080348 1.80531,5.665033 -10.23303,8.291176 -19.41462,4.235272 -23.28036,5.585022 -31.21622,10.899372 -2.02868,1.35853 -6.06715,4.53078 -8.9744,7.04946 -2.90724,2.51867 -5.6368,4.76721 -6.06568,4.99674 -1.32457,0.70889 -2.43545,0.46596 -3.19975,-0.69971 z" id="path25468-5" class="xJqCoksD_11"></path>
    <path style="display: inline; fill: none; fill-opacity: 1; stroke: rgb(0, 0, 0); stroke-width: 1; stroke-linecap: round; stroke-linejoin: round; stroke-miterlimit: 4; stroke-opacity: 0.99437;" d="m 44.863253,90.55408 c -1.42092,-2.16717 -1.17661,-14.25 0.41592,-20.56933 0.42622,-1.691305 0.66862,-2.042597 1.33838,-1.939616 0.44984,0.06916 2.68985,0.23146 4.9778,0.360656 5.93682,0.335235 9.74687,-0.854969 14.60054,-4.560996 l 2.23751,-1.708449 4.57821,-0.02892 c 7.77772,-0.04912 12.85242,-2.011331 17.64384,-6.822263 l 2.73879,-2.749939 2.83771,1.500243 c 3.931897,2.078718 6.276637,3.764367 8.320387,5.981576 3.76114,4.080348 1.80531,5.665033 -10.233037,8.291176 -19.41462,4.235272 -23.28036,5.585022 -31.21622,10.899372 -2.02868,1.35853 -6.06715,4.53078 -8.9744,7.04946 -2.90724,2.51867 -5.6368,4.76721 -6.06568,4.99674 -1.32457,0.70889 -2.43545,0.46596 -3.19975,-0.69971 z" id="path25468-5-4" class="xJqCoksD_12"></path>
    <path style="fill: rgb(153, 153, 153); fill-opacity: 0.6; stroke: rgb(0, 0, 0); stroke-width: 1; stroke-linecap: round; stroke-linejoin: round; stroke-miterlimit: 4; stroke-opacity: 1;" d="m 111.01986,102.76634 c 1.69441,-1.88162 4.55616,-7.501811 5.35357,-10.513844 l 0.5172,-1.953643 1.67216,0.235153 c 2.67129,0.375661 7.45838,1.724607 11.08931,3.124843 l 3.35796,1.294969 -2.90899,2.724213 c -4.91614,4.603869 -8.50159,6.039889 -16.26878,6.515849 l -4.33727,0.26578 z" id="path25760-5" class="xJqCoksD_13"></path>
    <path style="display: inline; fill: none; fill-opacity: 1; stroke: rgb(0, 0, 0); stroke-width: 1; stroke-linecap: round; stroke-linejoin: round; stroke-miterlimit: 4; stroke-opacity: 1;" d="m 71.016577,60.443025 c 1.69441,-1.88162 4.55616,-7.501813 5.35357,-10.513846 l 0.5172,-1.953643 1.67216,0.235153 c 2.67129,0.375661 7.45838,1.724607 11.08931,3.124843 l 3.35796,1.294969 -2.90899,2.724213 c -4.91614,4.603871 -8.50159,6.039891 -16.26878,6.515851 l -4.33727,0.26578 z" id="path25760-5-6" class="xJqCoksD_14"></path>
  </g>
<style data-made-with="vivus-instant">.xJqCoksD_0{stroke-dasharray:138 140;stroke-dashoffset:139;animation:xJqCoksD_draw_0 11400ms linear 0ms infinite,xJqCoksD_fade 11400ms linear 0ms infinite;}.xJqCoksD_1{stroke-dasharray:146 148;stroke-dashoffset:147;animation:xJqCoksD_draw_1 11400ms linear 0ms infinite,xJqCoksD_fade 11400ms linear 0ms infinite;}.xJqCoksD_2{stroke-dasharray:170 172;stroke-dashoffset:171;animation:xJqCoksD_draw_2 11400ms linear 0ms infinite,xJqCoksD_fade 11400ms linear 0ms infinite;}.xJqCoksD_3{stroke-dasharray:128 130;stroke-dashoffset:129;animation:xJqCoksD_draw_3 11400ms linear 0ms infinite,xJqCoksD_fade 11400ms linear 0ms infinite;}.xJqCoksD_4{stroke-dasharray:128 130;stroke-dashoffset:129;animation:xJqCoksD_draw_4 11400ms linear 0ms infinite,xJqCoksD_fade 11400ms linear 0ms infinite;}.xJqCoksD_5{stroke-dasharray:56 58;stroke-dashoffset:57;animation:xJqCoksD_draw_5 11400ms linear 0ms infinite,xJqCoksD_fade 11400ms linear 0ms infinite;}.xJqCoksD_6{stroke-dasharray:56 58;stroke-dashoffset:57;animation:xJqCoksD_draw_6 11400ms linear 0ms infinite,xJqCoksD_fade 11400ms linear 0ms infinite;}.xJqCoksD_7{stroke-dasharray:102 104;stroke-dashoffset:103;animation:xJqCoksD_draw_7 11400ms linear 0ms infinite,xJqCoksD_fade 11400ms linear 0ms infinite;}.xJqCoksD_8{stroke-dasharray:102 104;stroke-dashoffset:103;animation:xJqCoksD_draw_8 11400ms linear 0ms infinite,xJqCoksD_fade 11400ms linear 0ms infinite;}.xJqCoksD_9{stroke-dasharray:62 64;stroke-dashoffset:63;animation:xJqCoksD_draw_9 11400ms linear 0ms infinite,xJqCoksD_fade 11400ms linear 0ms infinite;}.xJqCoksD_10{stroke-dasharray:62 64;stroke-dashoffset:63;animation:xJqCoksD_draw_10 11400ms linear 0ms infinite,xJqCoksD_fade 11400ms linear 0ms infinite;}.xJqCoksD_11{stroke-dasharray:162 164;stroke-dashoffset:163;animation:xJqCoksD_draw_11 11400ms linear 0ms infinite,xJqCoksD_fade 11400ms linear 0ms infinite;}.xJqCoksD_12{stroke-dasharray:162 164;stroke-dashoffset:163;animation:xJqCoksD_draw_12 11400ms linear 0ms infinite,xJqCoksD_fade 11400ms linear 0ms infinite;}.xJqCoksD_13{stroke-dasharray:60 62;stroke-dashoffset:61;animation:xJqCoksD_draw_13 11400ms linear 0ms infinite,xJqCoksD_fade 11400ms linear 0ms infinite;}.xJqCoksD_14{stroke-dasharray:60 62;stroke-dashoffset:61;animation:xJqCoksD_draw_14 11400ms linear 0ms infinite,xJqCoksD_fade 11400ms linear 0ms infinite;}@keyframes xJqCoksD_draw{100%{stroke-dashoffset:0;}}@keyframes xJqCoksD_fade{0%{stroke-opacity:1;}96.49122807017544%{stroke-opacity:1;}100%{stroke-opacity:0;}}@keyframes xJqCoksD_draw_0{0%{stroke-dashoffset: 139}6.062390282729821%{ stroke-dashoffset: 0;}100%{ stroke-dashoffset: 0;}}@keyframes xJqCoksD_draw_1{6.062390282729821%{stroke-dashoffset: 147}12.473695114105961%{ stroke-dashoffset: 0;}100%{ stroke-dashoffset: 0;}}@keyframes xJqCoksD_draw_2{12.47369511410596%{stroke-dashoffset: 171}19.93174359142106%{ stroke-dashoffset: 0;}100%{ stroke-dashoffset: 0;}}@keyframes xJqCoksD_draw_3{19.931743591421068%{stroke-dashoffset: 129}25.557990688342986%{ stroke-dashoffset: 0;}100%{ stroke-dashoffset: 0;}}@keyframes xJqCoksD_draw_4{25.557990688342986%{stroke-dashoffset: 129}31.184237785264905%{ stroke-dashoffset: 0;}100%{ stroke-dashoffset: 0;}}@keyframes xJqCoksD_draw_5{31.184237785264905%{stroke-dashoffset: 57}33.67025394436994%{ stroke-dashoffset: 0;}100%{ stroke-dashoffset: 0;}}@keyframes xJqCoksD_draw_6{33.67025394436994%{stroke-dashoffset: 57}36.156270103474974%{ stroke-dashoffset: 0;}100%{ stroke-dashoffset: 0;}}@keyframes xJqCoksD_draw_7{36.156270103474974%{stroke-dashoffset: 103}40.64854491729635%{ stroke-dashoffset: 0;}100%{ stroke-dashoffset: 0;}}@keyframes xJqCoksD_draw_8{40.64854491729635%{stroke-dashoffset: 103}45.14081973111772%{ stroke-dashoffset: 0;}100%{ stroke-dashoffset: 0;}}@keyframes xJqCoksD_draw_9{45.14081973111772%{stroke-dashoffset: 63}47.8885218017075%{ stroke-dashoffset: 0;}100%{ stroke-dashoffset: 0;}}@keyframes xJqCoksD_draw_10{47.888521801707505%{stroke-dashoffset: 63}50.63622387229728%{ stroke-dashoffset: 0;}100%{ stroke-dashoffset: 0;}}@keyframes xJqCoksD_draw_11{50.63622387229727%{stroke-dashoffset: 163}57.745357800966055%{ stroke-dashoffset: 0;}100%{ stroke-dashoffset: 0;}}@keyframes xJqCoksD_draw_12{57.745357800966055%{stroke-dashoffset: 163}64.85449172963483%{ stroke-dashoffset: 0;}100%{ stroke-dashoffset: 0;}}@keyframes xJqCoksD_draw_13{64.85449172963483%{stroke-dashoffset: 61}67.51496516306304%{ stroke-dashoffset: 0;}100%{ stroke-dashoffset: 0;}}@keyframes xJqCoksD_draw_14{67.51496516306304%{stroke-dashoffset: 61}70.17543859649122%{ stroke-dashoffset: 0;}100%{ stroke-dashoffset: 0;}}</style></svg>
