<svg id="e28iIsaYXdA1" xmlns="http://www.w3.org/2000/svg" xmlns:xlink="http://www.w3.org/1999/xlink" viewBox="0 0 316.24241 187.51455" shape-rendering="geometricPrecision" text-rendering="geometricPrecision">
<style><![CDATA[
#e28iIsaYXdA12_to {animation: e28iIsaYXdA12_to__to 7000ms linear infinite normal forwards}@keyframes e28iIsaYXdA12_to__to { 0% {transform: translate(161.325012px,24.180762px);animation-timing-function: cubic-bezier(0.39,0.575,0.565,1)} 14.285714% {transform: translate(161.325012px,24.180762px);animation-timing-function: cubic-bezier(0.39,0.575,0.565,1)} 57.142857% {transform: translate(172.93575px,47.179771px)} 71.428571% {transform: translate(172.93575px,47.179771px)} 100% {transform: translate(161.325012px,24.180762px)}} #e28iIsaYXdA13_to {animation: e28iIsaYXdA13_to__to 7000ms linear infinite normal forwards}@keyframes e28iIsaYXdA13_to__to { 0% {transform: translate(275.249634px,14.227672px);animation-timing-function: cubic-bezier(0.39,0.575,0.565,1)} 14.285714% {transform: translate(275.249634px,14.227672px);animation-timing-function: cubic-bezier(0.39,0.575,0.565,1)} 57.142857% {transform: translate(180.71707px,61.326957px)} 71.428571% {transform: translate(180.71707px,61.326957px)} 100% {transform: translate(275.249634px,14.227672px)}} #e28iIsaYXdA14_to {animation: e28iIsaYXdA14_to__to 7000ms linear infinite normal forwards}@keyframes e28iIsaYXdA14_to__to { 0% {transform: translate(163.237694px,59.96467px);animation-timing-function: cubic-bezier(0.39,0.575,0.565,1)} 14.285714% {transform: translate(163.237694px,59.96467px);animation-timing-function: cubic-bezier(0.39,0.575,0.565,1)} 57.142857% {transform: translate(209.45312px,32.519078px)} 71.428571% {transform: translate(209.45312px,32.519078px)} 100% {transform: translate(163.237694px,59.96467px)}} #e28iIsaYXdA15_to {animation: e28iIsaYXdA15_to__to 7000ms linear infinite normal forwards}@keyframes e28iIsaYXdA15_to__to { 0% {transform: translate(208.069687px,41.426163px);animation-timing-function: cubic-bezier(0.39,0.575,0.565,1)} 14.285714% {transform: translate(208.069687px,41.426163px);animation-timing-function: cubic-bezier(0.39,0.575,0.565,1)} 57.142857% {transform: translate(188.665372px,43.69524px)} 71.428571% {transform: translate(188.665372px,43.69524px)} 100% {transform: translate(208.069687px,41.426163px)}} #e28iIsaYXdA16_to {animation: e28iIsaYXdA16_to__to 7000ms linear infinite normal forwards}@keyframes e28iIsaYXdA16_to__to { 0% {transform: translate(173.506615px,102.639797px);animation-timing-function: cubic-bezier(0.39,0.575,0.565,1)} 14.285714% {transform: translate(173.506615px,102.639797px);animation-timing-function: cubic-bezier(0.39,0.575,0.565,1)} 57.142857% {transform: translate(199.552649px,72.955307px)} 71.428571% {transform: translate(199.552649px,72.955307px)} 100% {transform: translate(173.506615px,102.639797px)}} #e28iIsaYXdA17_to {animation: e28iIsaYXdA17_to__to 7000ms linear infinite normal forwards}@keyframes e28iIsaYXdA17_to__to { 0% {transform: translate(121.252529px,97.379257px);animation-timing-function: cubic-bezier(0.39,0.575,0.565,1)} 14.285714% {transform: translate(121.252529px,97.379257px);animation-timing-function: cubic-bezier(0.39,0.575,0.565,1)} 57.142857% {transform: translate(205.120964px,54.910059px)} 71.428571% {transform: translate(205.120964px,54.910059px)} 100% {transform: translate(121.252529px,97.379257px)}}
]]></style>
<g transform="translate(16.5835 9.63861)"><path d="M35.69344,37.746321c4.502626-3.917098,10.576983-9.04958,18.079053-9.399389s16.431204,4.082704,20.084697,10.00247s2.025674,13.353419-1.877121,19.373857-10.083336,10.641088-17.491392,11.21037-16.053879-2.917123-21.117921-7.234769-6.553401-9.476653-5.832082-13.405221s3.65214-6.630219,8.154766-10.547318Z" fill="#445274" fill-opacity="0.5" stroke-linecap="round" stroke-linejoin="round" stroke-dashoffset="139" stroke-dasharray="138,140"/><path d="M55.386248,43.459332c3.806178-4.576648,14.579799-4.954555,22.995409-11.945661s14.472959-20.595047,17.886877-16.603786s4.184166,25.577541-2.650691,36.956116-21.274472,12.549275-30.075337,8.747107-11.962436-12.577128-8.156258-17.153776Z" fill="#dd2a2b" fill-opacity="0.5" stroke-width="0.927132" stroke-dashoffset="147" stroke-dasharray="146,148"/><path d="M44.576478,72.763811c1.501704-8.091947,4.202915-12.757776,7.294633-16.194599s6.570743-5.642556,11.820172-7.284089s12.267478-2.717876,22.306706.556652s23.125701,10.915034,20.163911,15.020256-21.958221,4.682972-35.246406,10.600111-20.866466,17.172841-24.504713,17.042074-3.336007-11.648457-1.834303-19.740405Z" fill="#8aa678" fill-opacity="0.5" stroke-dashoffset="171" stroke-dasharray="170,172"/><text dx="0" dy="0" font-family="&quot;sans-serif&quot;" font-size="10.5833" font-weight="400" transform="translate(22.457737 35.692467)" fill="#404d71" stroke-width="0.264583"><tspan x="0" y="0" font-family="&quot;sans-serif&quot;" font-size="10.5833" font-weight="400" font-style="normal" fill="#404d71" stroke-width="0.264583"><![CDATA[
A
]]></tspan></text><text dx="0" dy="0" font-family="&quot;sans-serif&quot;" font-size="10.5833" font-weight="400" transform="translate(104.10653 35.330399)" fill="#dd2a2b" stroke-width="0.264583"><tspan x="0" y="0" font-family="&quot;sans-serif&quot;" font-size="10.5833" font-weight="400" font-style="normal" fill="#dd2a2b" stroke-width="0.264583"><![CDATA[
B
]]></tspan></text><text dx="0" dy="0" font-family="&quot;sans-serif&quot;" font-size="10.5833" font-weight="400" transform="translate(91.176918 83.377388)" fill="#8aa678" stroke-width="0.264583"><tspan x="0" y="0" font-family="&quot;sans-serif&quot;" font-size="10.5833" font-weight="400" font-style="normal" fill="#8aa678" stroke-width="0.264583"><![CDATA[
C
]]></tspan></text><g id="e28iIsaYXdA12_to" transform="translate(161.325012,24.180762)"><path d="M153.93331,42.429949c-11.34702-4.575175-17.01723-13.634481-13.07142-20.884231c2.30776-4.240123,12.74459-12.991912,18.34909-15.386614c2.78145-1.188463,3.5202-1.325393,7.22879-1.339908c3.29815-.01291,4.75519.188034,7.22879.996926c2.89617.947071,9.04344,4.626158,9.36758,5.606407.077.232865-1.48803,1.048885-3.47784,1.813375-10.00012,3.842081-11.77141,4.865428-13.19864,7.625384-.8302,1.605426-.83889,4.968825-.0179,6.91642l.63016,1.494843-2.59666,2.714194c-2.74793,2.872308-4.58116,5.769996-5.79936,9.166772-.4074,1.135952-.85121,2.197291-.98626,2.35853s-1.78041-.325704-3.65636-1.082098Z" transform="translate(-161.325012,-24.180762)" fill="#999" fill-opacity="0.6" stroke-linecap="round" stroke-linejoin="round" stroke-dashoffset="121.475" stroke-dasharray="128,130"/></g><g id="e28iIsaYXdA13_to" transform="translate(275.249634,14.227672)"><path d="M265.69983,21.197414c-1.64405-.473909-1.61019-.707261.8151-5.618316c1.48071-2.998322,6.05046-8.817568,6.88561-8.768324.15027.0089.86585.822286,1.59018,1.807612c1.69087,2.300124,5.56421,4.881423,8.76222,5.839376c2.44608.732716,2.49099.771932,1.79139,1.564251-1.33388,1.510662-5.59932,3.998396-8.2699,4.823253-2.88564.891286-9.05329,1.078931-11.5746.352148Z" transform="translate(-275.249634,-14.227672)" fill="#999" fill-opacity="0.6" stroke-linecap="round" stroke-linejoin="round" stroke-dashoffset="53.6751" stroke-dasharray="56,58"/></g><g id="e28iIsaYXdA14_to" transform="translate(163.237694,59.96467)"><path d="M169.70616,78.470852c-2.15903-1.152284-8.44907-3.137273-12.00005-3.786934l-3.69675-.676327v-1.513026c0-3.206776-2.12125-8.754901-3.72668-9.747109-.25999-.160682.65286-.929251,2.12638-1.790285c3.73585-2.183011,7.31098-5.676371,12.57757-12.289906c2.55095-3.203358,5.1567-6.232226,5.79056-6.730816c3.78236-2.97521,5.82109,2.849357,5.40666,15.446622-.25789,7.838874-1.05743,12.20316-3.16162,17.257641-1.75563,4.217207-2.01958,4.522084-3.31607,3.83014Z" transform="translate(-163.237694,-59.96467)" fill="#999" fill-opacity="0.6" stroke-linecap="round" stroke-linejoin="round" stroke-dashoffset="96.9919" stroke-dasharray="102,104"/></g><g id="e28iIsaYXdA15_to" transform="translate(208.069687,41.426163)"><path d="M197.97748,48.317143c-.77711-2.322851-.65637-5.116507.29127-6.739088c1.23401-2.112917,3.44253-3.412529,10.41332-6.127752l6.32623-2.464157l1.22683,1.934101c1.4853,2.341576,2.43712,5.384808,2.43712,7.792106v1.783858h-2.23557c-4.56976,0-11.23967,1.792007-15.39179,4.135321-1.20321.67905-2.269,1.234638-2.36842,1.234638s-.41396-.697063-.69899-1.549027Z" transform="translate(-208.069687,-41.426163)" fill="#999" fill-opacity="0.6" stroke-linecap="round" stroke-linejoin="round" stroke-dashoffset="59.3251" stroke-dasharray="62,64"/></g><g id="e28iIsaYXdA16_to" transform="translate(173.506615,102.639797)"><path d="M143.26788,121.10063c-1.42092-2.16717-1.17661-14.25.41592-20.56933.42622-1.691305.66862-2.042597,1.33838-1.939616.44984.06916,2.68985.23146,4.9778.360656c5.93682.335235,9.74687-.854969,14.60054-4.560996l2.23751-1.708449l4.57821-.02892c7.77772-.04912,12.85242-2.011331,17.64384-6.822263l2.73879-2.749939l2.83771,1.500243c3.93189,2.078718,6.27663,3.764367,8.32038,5.981576c3.76114,4.080348,1.80531,5.665033-10.23303,8.291176-19.41462,4.235272-23.28036,5.585022-31.21622,10.899372-2.02868,1.35853-6.06715,4.53078-8.9744,7.04946s-5.6368,4.76721-6.06568,4.99674c-1.32457.70889-2.43545.46596-3.19975-.69971Z" transform="translate(-173.506615,-102.639797)" fill="#999" fill-opacity="0.6" stroke-linecap="round" stroke-linejoin="round" stroke-dashoffset="153.492" stroke-dasharray="162,164"/></g><g id="e28iIsaYXdA17_to" transform="translate(121.252529,97.379257)"><path d="M111.01986,102.76634c1.69441-1.88162,4.55616-7.501811,5.35357-10.513844l.5172-1.953643l1.67216.235153c2.67129.375661,7.45838,1.724607,11.08931,3.124843l3.35796,1.294969-2.90899,2.724213c-4.91614,4.603869-8.50159,6.039889-16.26878,6.515849l-4.33727.26578Z" transform="translate(-121.252529,-97.379257)" fill="#999" fill-opacity="0.6" stroke-linecap="round" stroke-linejoin="round" stroke-dashoffset="57.4418" stroke-dasharray="60,62"/></g></g></svg>
