<!--?xml version="1.0" encoding="UTF-8" standalone="no"?-->
<!-- Created with Inkscape (http://www.inkscape.org/) -->

<svg width="316.2424mm" height="187.51456mm" viewBox="0 0 316.24241 187.51455" version="1.1" id="svg5" inkscape:version="1.1.1 (3bf5ae0d25, 2021-09-20)" sodipodi:docname="c2.svg" xmlns:inkscape="http://www.inkscape.org/namespaces/inkscape" xmlns:sodipodi="http://sodipodi.sourceforge.net/DTD/sodipodi-0.dtd" xmlns="http://www.w3.org/2000/svg" xmlns:svg="http://www.w3.org/2000/svg" style="">
  <sodipodi:namedview id="namedview7" pagecolor="#ffffff" bordercolor="#111111" borderopacity="1" inkscape:pageshadow="0" inkscape:pageopacity="0" inkscape:pagecheckerboard="1" inkscape:document-units="mm" showgrid="false" inkscape:zoom="0.64052329" inkscape:cx="672.10671" inkscape:cy="306.78041" inkscape:window-width="1600" inkscape:window-height="821" inkscape:window-x="1911" inkscape:window-y="-9" inkscape:window-maximized="1" inkscape:current-layer="layer1"></sodipodi:namedview>
  <defs id="defs2">
    <inkscape:path-effect effect="bspline" id="path-effect17189" is_visible="true" lpeversion="1" weight="33.333333" steps="2" helper_size="0" apply_no_weight="true" apply_with_weight="true" only_selected="false"></inkscape:path-effect>
    <inkscape:path-effect effect="bspline" id="path-effect9938" is_visible="true" lpeversion="1" weight="33.333333" steps="2" helper_size="0" apply_no_weight="true" apply_with_weight="true" only_selected="false"></inkscape:path-effect>
    <inkscape:path-effect effect="bspline" id="path-effect1028" is_visible="true" lpeversion="1" weight="33.333333" steps="2" helper_size="0" apply_no_weight="true" apply_with_weight="true" only_selected="false"></inkscape:path-effect>
    <inkscape:path-effect effect="bspline" id="path-effect859" is_visible="true" lpeversion="1" weight="33.333333" steps="2" helper_size="0" apply_no_weight="true" apply_with_weight="true" only_selected="false"></inkscape:path-effect>
  </defs>
  <g inkscape:label="Layer 1" inkscape:groupmode="layer" id="layer1" transform="translate(16.583502,9.6386099)">
    <path style="fill: rgb(68, 82, 116); fill-opacity: 0.5; stroke: none; stroke-width: 1; stroke-linecap: round; stroke-linejoin: round; stroke-miterlimit: 4; stroke-opacity: 1;" d="m 35.69344,37.746321 c 4.502626,-3.917098 10.576983,-9.04958 18.079053,-9.399389 7.50207,-0.34981 16.431204,4.082704 20.084697,10.00247 3.653494,5.919766 2.025674,13.353419 -1.877121,19.373857 C 68.077273,63.743698 61.896733,68.364347 54.488677,68.933629 47.080622,69.502911 38.434798,66.016506 33.370756,61.69886 28.306713,57.381214 26.817355,52.222207 27.538674,48.293639 28.259993,44.36507 31.190814,41.66342 35.69344,37.746321 Z" id="path857" inkscape:path-effect="#path-effect859" inkscape:original-d="m 34.121681,38.961727 c 6.074625,-5.13222 12.148984,-10.2647 18.223079,-15.39745 8.929751,4.43295 17.858887,8.86546 26.787927,13.2978 -1.59429,7.41316 -3.24952,14.84081 -4.87467,22.26082 -6.18052,4.6211 -12.36106,9.24175 -18.541986,13.86222 -8.640686,-3.46912 -17.28129,-6.96847 -25.92233,-10.45311 -1.472797,-5.15489 -2.976172,-10.30985 -4.464655,-15.46517 2.931202,-2.70149 5.862023,-5.40314 8.792635,-8.10511 z" class="ugUpzTbQ_0"></path>
    <path style="fill: rgb(221, 42, 43); fill-opacity: 0.5; stroke: none; stroke-width: 0.927132; stroke-linecap: butt; stroke-linejoin: miter; stroke-miterlimit: 4; stroke-opacity: 1;" d="M 55.386248,43.459332 C 59.192426,38.882684 69.966047,38.504777 78.381657,31.513671 86.797267,24.522565 92.854616,10.918624 96.268534,14.909885 99.682452,18.901146 100.4527,40.487426 93.617843,51.866001 86.782982,63.244577 72.343371,64.415276 63.542506,60.613108 54.741641,56.81094 51.58007,48.03598 55.386248,43.459332 Z" id="path9936" inkscape:path-effect="#path-effect9938" inkscape:original-d="m 48.41835,39.260607 c 10.774086,-0.37765 21.547707,-0.75555 32.321407,-1.13374 6.05783,-13.60416 12.11518,-27.2081 18.17242,-40.8126596 0.77053,21.5869296 1.540783,43.1732096 2.310783,64.7596396 -14.439963,1.17092 -28.879573,2.34163 -43.319705,3.51217 -3.161467,-8.77513 -6.323038,-17.55009 -9.484905,-26.32541 z" sodipodi:nodetypes="cccccc" class="ugUpzTbQ_1"></path>
    <path style="fill: rgb(138, 166, 120); fill-opacity: 0.5; stroke: none; stroke-width: 1; stroke-linecap: butt; stroke-linejoin: miter; stroke-miterlimit: 4; stroke-opacity: 1;" d="m 44.576478,72.763811 c 1.501704,-8.091947 4.202915,-12.757776 7.294633,-16.194599 3.091718,-3.436824 6.570743,-5.642556 11.820172,-7.284089 5.249428,-1.641533 12.267478,-2.717876 22.306706,0.556652 10.039228,3.274527 23.125701,10.915034 20.163911,15.020256 -2.96179,4.105222 -21.958221,4.682972 -35.246406,10.600111 C 57.62731,81.379282 50.049028,92.634983 46.410781,92.504216 42.772535,92.373449 43.074774,80.855759 44.576478,72.763811 Z" id="path17187" inkscape:path-effect="#path-effect17189" inkscape:original-d="m 43.377026,69.337597 c 2.701455,-4.66556 5.402664,-9.33139 8.10363,-13.99748 3.482369,-2.20742 6.961395,-4.41315 10.441716,-6.62014 7.018385,-1.07609 14.036435,-2.15243 21.054295,-3.22905 13.0605,7.62546 26.146973,15.26596 39.220093,22.89857 -18.99664,0.57803 -37.993073,1.15578 -56.990633,1.73329 C 57.627614,81.379486 50.049329,92.635186 42.47029,103.89136 42.772806,92.373456 43.075046,80.855766 43.377026,69.337597 Z" sodipodi:nodetypes="cccccccc" class="ugUpzTbQ_2"></path>
    <text xml:space="preserve" style="font-style:normal;font-weight:normal;font-size:10.5833px;line-height:1.25;font-family:sans-serif;fill:#404d71;fill-opacity:1;stroke:none;stroke-width:0.264583" x="22.457737" y="35.692467" id="text30639"><tspan sodipodi:role="line" id="tspan30637" style="fill:#404d71;fill-opacity:1;stroke-width:0.264583" x="22.457737" y="35.692467">A</tspan></text>
    <text xml:space="preserve" style="font-style:normal;font-weight:normal;font-size:10.5833px;line-height:1.25;font-family:sans-serif;fill:#dd2a2b;fill-opacity:1;stroke:none;stroke-width:0.264583" x="104.10653" y="35.330399" id="text36814"><tspan sodipodi:role="line" id="tspan36812" style="fill:#dd2a2b;fill-opacity:1;stroke-width:0.264583" x="104.10653" y="35.330399">B</tspan></text>
    <text xml:space="preserve" style="font-style:normal;font-weight:normal;font-size:10.5833px;line-height:1.25;font-family:sans-serif;fill:#8aa678;fill-opacity:1;stroke:none;stroke-width:0.264583" x="91.176918" y="83.377388" id="text45309"><tspan sodipodi:role="line" id="tspan45307" style="fill:#8aa678;fill-opacity:1;stroke-width:0.264583" x="91.176918" y="83.377388">C</tspan></text>
    <path style="fill: rgb(153, 153, 153); fill-opacity: 0.6; stroke: rgb(0, 0, 0); stroke-width: 3.77953; stroke-linecap: round; stroke-linejoin: round; stroke-miterlimit: 4; stroke-opacity: 1;" d="m 221.26193,287.40576 c -42.88638,-17.292 -64.31711,-51.5319 -49.40382,-78.93253 8.72226,-16.02566 48.16854,-49.10329 69.35092,-58.15413 10.51255,-4.49183 13.30467,-5.00936 27.32141,-5.06422 12.46543,-0.0488 17.97234,0.71068 27.32141,3.76791 10.94613,3.57948 34.17993,17.48469 35.405,21.18957 0.29103,0.88012 -5.62402,3.96429 -13.14457,6.8537 -37.79572,14.52125 -44.49038,18.38902 -49.88463,28.82035 -3.13775,6.06775 -3.1706,18.77981 -0.0675,26.1408 l 2.3817,5.6498 -9.81415,10.25837 c -10.38588,10.85597 -17.3146,21.80786 -21.91885,34.64607 -1.53975,4.29336 -3.21717,8.30472 -3.72758,8.91413 -0.51042,0.6094 -6.7291,-1.23101 -13.81931,-4.08982 z" id="path15185" transform="matrix(0.26458333,0,0,0.26458333,-16.583502,-9.6386099)" class="ugUpzTbQ_3"></path>
    <path style="fill: rgb(153, 153, 153); fill-opacity: 0.6; stroke: rgb(0, 0, 0); stroke-width: 1; stroke-linecap: round; stroke-linejoin: round; stroke-miterlimit: 4; stroke-opacity: 1;" d="m 153.93331,42.429949 c -11.34702,-4.575175 -17.01723,-13.634481 -13.07142,-20.884231 2.30776,-4.240123 12.74459,-12.9919116 18.34909,-15.3866136 2.78145,-1.188463 3.5202,-1.325393 7.22879,-1.339908 3.29815,-0.01291 4.75519,0.188034 7.22879,0.996926 2.89617,0.947071 9.04344,4.6261576 9.36758,5.6064066 0.077,0.232865 -1.48803,1.048885 -3.47784,1.813375 -10.00012,3.842081 -11.77141,4.865428 -13.19864,7.625384 -0.8302,1.605426 -0.83889,4.968825 -0.0179,6.91642 l 0.63016,1.494843 -2.59666,2.714194 c -2.74793,2.872308 -4.58116,5.769996 -5.79936,9.166772 -0.4074,1.135952 -0.85121,2.197291 -0.98626,2.35853 -0.13505,0.161238 -1.78041,-0.325704 -3.65636,-1.082098 z" id="path15185-3" class="ugUpzTbQ_4"></path>
  </g>
<style data-made-with="vivus-instant">.ugUpzTbQ_0{stroke-dasharray:138 140;stroke-dashoffset:139;animation:ugUpzTbQ_draw 2000ms linear 0ms forwards;}.ugUpzTbQ_1{stroke-dasharray:146 148;stroke-dashoffset:147;animation:ugUpzTbQ_draw 2000ms linear 250ms forwards;}.ugUpzTbQ_2{stroke-dasharray:170 172;stroke-dashoffset:171;animation:ugUpzTbQ_draw 2000ms linear 500ms forwards;}.ugUpzTbQ_3{stroke-dasharray:481 483;stroke-dashoffset:482;animation:ugUpzTbQ_draw 2000ms linear 750ms forwards;}.ugUpzTbQ_4{stroke-dasharray:128 130;stroke-dashoffset:129;animation:ugUpzTbQ_draw 2000ms linear 1000ms forwards;}@keyframes ugUpzTbQ_draw{100%{stroke-dashoffset:0;}}@keyframes ugUpzTbQ_fade{0%{stroke-opacity:1;}94.44444444444444%{stroke-opacity:1;}100%{stroke-opacity:0;}}</style></svg>
