<?xml version="1.0" encoding="UTF-8" standalone="no"?>
<!-- Created with Inkscape (http://www.inkscape.org/) -->

<svg
   width="316.2424mm"
   height="187.51456mm"
   viewBox="0 0 316.24241 187.51455"
   version="1.1"
   id="svg5"
   inkscape:version="1.1.1 (3bf5ae0d25, 2021-09-20)"
   sodipodi:docname="c6.svg"
   xmlns:inkscape="http://www.inkscape.org/namespaces/inkscape"
   xmlns:sodipodi="http://sodipodi.sourceforge.net/DTD/sodipodi-0.dtd"
   xmlns="http://www.w3.org/2000/svg"
   xmlns:svg="http://www.w3.org/2000/svg">
  <sodipodi:namedview
     id="namedview7"
     pagecolor="#ffffff"
     bordercolor="#111111"
     borderopacity="1"
     inkscape:pageshadow="0"
     inkscape:pageopacity="0"
     inkscape:pagecheckerboard="1"
     inkscape:document-units="mm"
     showgrid="false"
     inkscape:zoom="0.64052329"
     inkscape:cx="672.10671"
     inkscape:cy="306.78041"
     inkscape:window-width="1600"
     inkscape:window-height="821"
     inkscape:window-x="1911"
     inkscape:window-y="-9"
     inkscape:window-maximized="1"
     inkscape:current-layer="layer1" />
  <defs
     id="defs2">
    <inkscape:path-effect
       effect="bspline"
       id="path-effect17189"
       is_visible="true"
       lpeversion="1"
       weight="33.333333"
       steps="2"
       helper_size="0"
       apply_no_weight="true"
       apply_with_weight="true"
       only_selected="false" />
    <inkscape:path-effect
       effect="bspline"
       id="path-effect9938"
       is_visible="true"
       lpeversion="1"
       weight="33.333333"
       steps="2"
       helper_size="0"
       apply_no_weight="true"
       apply_with_weight="true"
       only_selected="false" />
    <inkscape:path-effect
       effect="bspline"
       id="path-effect1028"
       is_visible="true"
       lpeversion="1"
       weight="33.333333"
       steps="2"
       helper_size="0"
       apply_no_weight="true"
       apply_with_weight="true"
       only_selected="false" />
    <inkscape:path-effect
       effect="bspline"
       id="path-effect859"
       is_visible="true"
       lpeversion="1"
       weight="33.333333"
       steps="2"
       helper_size="0"
       apply_no_weight="true"
       apply_with_weight="true"
       only_selected="false" />
  </defs>
  <g
     inkscape:label="Layer 1"
     inkscape:groupmode="layer"
     id="layer1"
     transform="translate(16.583502,9.6386099)">
    <path
       style="fill:#445274;fill-opacity:0.5;stroke:#000000;stroke-width:1;stroke-linecap:round;stroke-linejoin:round;stroke-miterlimit:4;stroke-dasharray:none;stroke-dashoffset:0;stroke-opacity:1"
       d="m 35.69344,37.746321 c 4.502626,-3.917098 10.576983,-9.04958 18.079053,-9.399389 7.50207,-0.34981 16.431204,4.082704 20.084697,10.00247 3.653494,5.919766 2.025674,13.353419 -1.877121,19.373857 C 68.077273,63.743698 61.896733,68.364347 54.488677,68.933629 47.080622,69.502911 38.434798,66.016506 33.370756,61.69886 28.306713,57.381214 26.817355,52.222207 27.538674,48.293639 28.259993,44.36507 31.190814,41.66342 35.69344,37.746321 Z"
       id="path857"
       inkscape:path-effect="#path-effect859"
       inkscape:original-d="m 34.121681,38.961727 c 6.074625,-5.13222 12.148984,-10.2647 18.223079,-15.39745 8.929751,4.43295 17.858887,8.86546 26.787927,13.2978 -1.59429,7.41316 -3.24952,14.84081 -4.87467,22.26082 -6.18052,4.6211 -12.36106,9.24175 -18.541986,13.86222 -8.640686,-3.46912 -17.28129,-6.96847 -25.92233,-10.45311 -1.472797,-5.15489 -2.976172,-10.30985 -4.464655,-15.46517 2.931202,-2.70149 5.862023,-5.40314 8.792635,-8.10511 z" />
    <path
       style="fill:#dd2a2b;fill-opacity:0.5;stroke:none;stroke-width:0.927132;stroke-linecap:butt;stroke-linejoin:miter;stroke-miterlimit:4;stroke-dasharray:none;stroke-opacity:1"
       d="M 55.386248,43.459332 C 59.192426,38.882684 69.966047,38.504777 78.381657,31.513671 86.797267,24.522565 92.854616,10.918624 96.268534,14.909885 99.682452,18.901146 100.4527,40.487426 93.617843,51.866001 86.782982,63.244577 72.343371,64.415276 63.542506,60.613108 54.741641,56.81094 51.58007,48.03598 55.386248,43.459332 Z"
       id="path9936"
       inkscape:path-effect="#path-effect9938"
       inkscape:original-d="m 48.41835,39.260607 c 10.774086,-0.37765 21.547707,-0.75555 32.321407,-1.13374 6.05783,-13.60416 12.11518,-27.2081 18.17242,-40.8126596 0.77053,21.5869296 1.540783,43.1732096 2.310783,64.7596396 -14.439963,1.17092 -28.879573,2.34163 -43.319705,3.51217 -3.161467,-8.77513 -6.323038,-17.55009 -9.484905,-26.32541 z"
       sodipodi:nodetypes="cccccc" />
    <path
       style="fill:#8aa678;fill-opacity:0.5;stroke:none;stroke-width:1;stroke-linecap:butt;stroke-linejoin:miter;stroke-miterlimit:4;stroke-dasharray:none;stroke-opacity:1"
       d="m 44.576478,72.763811 c 1.501704,-8.091947 4.202915,-12.757776 7.294633,-16.194599 3.091718,-3.436824 6.570743,-5.642556 11.820172,-7.284089 5.249428,-1.641533 12.267478,-2.717876 22.306706,0.556652 10.039228,3.274527 23.125701,10.915034 20.163911,15.020256 -2.96179,4.105222 -21.958221,4.682972 -35.246406,10.600111 C 57.62731,81.379282 50.049028,92.634983 46.410781,92.504216 42.772535,92.373449 43.074774,80.855759 44.576478,72.763811 Z"
       id="path17187"
       inkscape:path-effect="#path-effect17189"
       inkscape:original-d="m 43.377026,69.337597 c 2.701455,-4.66556 5.402664,-9.33139 8.10363,-13.99748 3.482369,-2.20742 6.961395,-4.41315 10.441716,-6.62014 7.018385,-1.07609 14.036435,-2.15243 21.054295,-3.22905 13.0605,7.62546 26.146973,15.26596 39.220093,22.89857 -18.99664,0.57803 -37.993073,1.15578 -56.990633,1.73329 C 57.627614,81.379486 50.049329,92.635186 42.47029,103.89136 42.772806,92.373456 43.075046,80.855766 43.377026,69.337597 Z"
       sodipodi:nodetypes="cccccccc" />
    <text
       xml:space="preserve"
       style="font-style:normal;font-weight:normal;font-size:10.5833px;line-height:1.25;font-family:sans-serif;fill:#404d71;fill-opacity:1;stroke:none;stroke-width:0.264583"
       x="22.457737"
       y="35.692467"
       id="text30639"><tspan
         sodipodi:role="line"
         id="tspan30637"
         style="fill:#404d71;fill-opacity:1;stroke-width:0.264583"
         x="22.457737"
         y="35.692467">A</tspan></text>
    <text
       xml:space="preserve"
       style="font-style:normal;font-weight:normal;font-size:10.5833px;line-height:1.25;font-family:sans-serif;fill:#dd2a2b;fill-opacity:1;stroke:none;stroke-width:0.264583"
       x="104.10653"
       y="35.330399"
       id="text36814"><tspan
         sodipodi:role="line"
         id="tspan36812"
         style="fill:#dd2a2b;fill-opacity:1;stroke-width:0.264583"
         x="104.10653"
         y="35.330399">B</tspan></text>
    <text
       xml:space="preserve"
       style="font-style:normal;font-weight:normal;font-size:10.5833px;line-height:1.25;font-family:sans-serif;fill:#8aa678;fill-opacity:1;stroke:none;stroke-width:0.264583"
       x="91.176918"
       y="83.377388"
       id="text45309"><tspan
         sodipodi:role="line"
         id="tspan45307"
         style="fill:#8aa678;fill-opacity:1;stroke-width:0.264583"
         x="91.176918"
         y="83.377388">C</tspan></text>
    <path
       style="fill:#999999;fill-opacity:0.6;stroke:#000000;stroke-width:1;stroke-linecap:round;stroke-linejoin:round;stroke-miterlimit:4;stroke-dasharray:none;stroke-opacity:1"
       d="m 153.93331,42.429949 c -11.34702,-4.575175 -17.01723,-13.634481 -13.07142,-20.884231 2.30776,-4.240123 12.74459,-12.9919116 18.34909,-15.3866136 2.78145,-1.188463 3.5202,-1.325393 7.22879,-1.339908 3.29815,-0.01291 4.75519,0.188034 7.22879,0.996926 2.89617,0.947071 9.04344,4.6261576 9.36758,5.6064066 0.077,0.232865 -1.48803,1.048885 -3.47784,1.813375 -10.00012,3.842081 -11.77141,4.865428 -13.19864,7.625384 -0.8302,1.605426 -0.83889,4.968825 -0.0179,6.91642 l 0.63016,1.494843 -2.59666,2.714194 c -2.74793,2.872308 -4.58116,5.769996 -5.79936,9.166772 -0.4074,1.135952 -0.85121,2.197291 -0.98626,2.35853 -0.13505,0.161238 -1.78041,-0.325704 -3.65636,-1.082098 z"
       id="path15185-3" />
    <path
       style="fill:#999999;fill-opacity:0.6;stroke:#000000;stroke-width:1;stroke-linecap:round;stroke-linejoin:round;stroke-miterlimit:4;stroke-dasharray:none;stroke-opacity:1"
       d="m 196.98511,22.36948 c -0.82788,-2.724005 -0.90831,-3.684334 -0.45105,-5.385435 0.815,-3.031935 2.75715,-4.407223 10.57726,-7.4900675 l 6.94721,-2.738734 0.78307,0.939768 c 1.47616,1.771579 2.82727,5.3277765 3.04239,8.0078045 l 0.21185,2.639195 h -2.49866 c -4.82783,0 -11.40687,1.737889 -15.65489,4.135321 -1.20321,0.67905 -2.269,1.234638 -2.36841,1.234638 -0.0994,0 -0.36437,-0.60412 -0.58877,-1.34249 z"
       id="path20587-8" />
    <path
       style="fill:#999999;fill-opacity:0.6;stroke:#000000;stroke-width:1;stroke-linecap:round;stroke-linejoin:round;stroke-miterlimit:4;stroke-dasharray:none;stroke-opacity:1"
       d="m 242.94816,20.43843 c -3.02501,-0.631167 -6.71982,-2.795064 -9.1844,-5.378919 -2.71083,-2.842019 -2.76924,-2.661427 1.57834,-4.879795 3.44413,-1.7573692 7.87155,-2.8853832 12.3939,-3.1577032 l 3.99668,-0.240665 -0.38851,1.813933 c -0.54305,2.5354322 -3.33711,8.0611632 -5.2091,10.3018552 -1.52003,1.819421 -1.62066,1.868091 -3.18691,1.541294 z"
       id="path20902-4" />
    <path
       style="fill:#999999;fill-opacity:0.60000002;stroke:#000000;stroke-width:1;stroke-linecap:round;stroke-linejoin:round;stroke-miterlimit:4;stroke-dasharray:none;stroke-opacity:1"
       d="m 265.69983,21.197414 c -1.64405,-0.473909 -1.61019,-0.707261 0.8151,-5.618316 1.48071,-2.998322 6.05046,-8.8175682 6.88561,-8.7683242 0.15027,0.0089 0.86585,0.822286 1.59018,1.807612 1.69087,2.3001242 5.56421,4.8814232 8.76222,5.8393762 2.44608,0.732716 2.49099,0.771932 1.79139,1.564251 -1.33388,1.510662 -5.59932,3.998396 -8.2699,4.823253 -2.88564,0.891286 -9.05329,1.078931 -11.5746,0.352148 z"
       id="path21218-0" />
  </g>
</svg>
