<?xml version="1.0" encoding="UTF-8" standalone="no"?>
<!-- Created with Inkscape (http://www.inkscape.org/) -->

<svg
   version="1.1"
   id="svg134985"
   width="3335.4497"
   height="1655.873"
   viewBox="0 0 3335.4497 1655.873"
   sodipodi:docname="comp2.svg"
   inkscape:version="1.1.1 (3bf5ae0d25, 2021-09-20)"
   xmlns:inkscape="http://www.inkscape.org/namespaces/inkscape"
   xmlns:sodipodi="http://sodipodi.sourceforge.net/DTD/sodipodi-0.dtd"
   xmlns="http://www.w3.org/2000/svg"
   xmlns:svg="http://www.w3.org/2000/svg">
  <defs
     id="defs134989" />
  <sodipodi:namedview
     id="namedview134987"
     pagecolor="#ffffff"
     bordercolor="#111111"
     borderopacity="1"
     inkscape:pageshadow="0"
     inkscape:pageopacity="0"
     inkscape:pagecheckerboard="1"
     showgrid="false"
     inkscape:zoom="0.39215102"
     inkscape:cx="1666.4498"
     inkscape:cy="827.48733"
     inkscape:window-width="1920"
     inkscape:window-height="1001"
     inkscape:window-x="-9"
     inkscape:window-y="-9"
     inkscape:window-maximized="1"
     inkscape:current-layer="g134991" />
  <g
     inkscape:groupmode="layer"
     inkscape:label="Image"
     id="g134991">
    <path
       style="fill:#008000;stroke:none;stroke-width:20;stroke-linecap:round;stroke-linejoin:round;fill-opacity:0.36475411;stroke-opacity:1;stroke-miterlimit:4;stroke-dasharray:none"
       d="M 657.9098,911.13462 C 618.63922,887.26244 559.60136,851.50395 526.71456,831.67126 L 466.92038,795.61186 444.7299,739.51102 C 398.0102,621.39668 371.34545,553.15355 369.84738,547.86411 c -1.30427,-4.60519 14.43324,-48.21221 39.43037,-109.25757 1.14862,-2.80505 12.62881,-32.06673 25.51153,-65.02597 12.88271,-32.95924 25.39967,-64.79289 27.81545,-70.74143 4.70378,-11.58244 0.054,-8.60583 213.15534,-136.455 21.03781,-12.62154 41.29651,-25.09901 45.01932,-27.7277 6.44784,-4.55286 14.48712,-4.77786 169.57752,-4.74597 l 162.80879,0.0335 73.9511,44.64448 c 40.6731,24.55447 100.0571,60.33567 131.9645,79.51378 31.9073,19.17811 58.0133,35.80608 58.0133,36.95105 0,1.14497 2.1764,6.9462 4.8363,12.89163 2.6599,5.94543 12.409,30.31766 21.6645,54.16052 9.2556,23.84285 28.9067,74.21271 43.6693,111.933 18.2398,46.60526 26.3098,70.30276 25.1834,73.9511 -2.3115,7.48686 -56.2433,146.26373 -78.3447,201.5955 l -18.2838,45.7745 -77.7761,46.95197 c -42.7769,25.8236 -102.3316,61.74027 -132.3439,79.81486 l -54.5676,32.8629 -160.91057,-0.22542 -160.91056,-0.22542 -71.40107,-43.40395 z"
       id="path135169" />
    <path
       style="fill:#008000;fill-opacity:0.364754;stroke:none;stroke-width:6;stroke-linecap:round;stroke-linejoin:round;stroke-miterlimit:4;stroke-dasharray:none;stroke-opacity:1"
       d="m 2255.6808,291.0585 c -11.7811,-7.16166 -29.4925,-17.8892 -39.3585,-23.83901 l -17.9383,-10.81782 -6.6571,-16.83025 c -14.0159,-35.43431 -22.0154,-55.90724 -22.4648,-57.49408 -0.3913,-1.38155 4.33,-14.46366 11.8291,-32.77727 0.3446,-0.84151 3.7887,-9.62002 7.6535,-19.50779 3.8648,-9.88777 7.6199,-19.43787 8.3446,-21.22242 1.4111,-3.47473 0.016,-2.58175 63.9466,-40.936504 6.3114,-3.78646 12.389,-7.5297 13.5058,-8.31831 1.9344,-1.36586 4.3461,-1.43336 50.8733,-1.42379 l 48.8426,0.0101 22.1853,13.39334 c 12.202,7.36635 30.0172,18.10071 39.5894,23.85414 9.5722,5.753434 17.404,10.741824 17.404,11.085314 0,0.3435 0.6529,2.08386 1.4509,3.86749 0.7979,1.78362 3.7227,9.09529 6.4993,16.24815 2.7767,7.15285 8.672,22.26381 13.1008,33.5799 5.4719,13.98158 7.8929,21.09083 7.555,22.18533 -0.6934,2.24606 -16.873,43.87912 -23.5034,60.47865 l -5.4851,13.73235 -23.3329,14.08559 c -12.833,7.74708 -30.6994,18.52208 -39.7031,23.94446 l -16.3703,9.85887 -48.2732,-0.0676 -48.2731,-0.0676 -21.4204,-13.02119 z"
       id="path135169-8" />
    <text
       xml:space="preserve"
       style="font-size:192px;line-height:1.25;font-family:sans-serif;fill:#008000;fill-opacity:1;stroke:none;stroke-opacity:1"
       x="2626.5393"
       y="249.90372"
       id="text137646"><tspan
         sodipodi:role="line"
         id="tspan137644"
         x="2626.5393"
         y="249.90372">Ω</tspan></text>
    <text
       xml:space="preserve"
       style="font-size:192px;line-height:1.25;font-family:sans-serif;fill:#b72d5a;fill-opacity:1;stroke:none;stroke-opacity:1"
       x="2627.1309"
       y="540.0351"
       id="text137646-4"><tspan
         sodipodi:role="line"
         id="tspan137644-9"
         x="2627.1309"
         y="540.0351">A</tspan></text>
    <path
       style="fill:#b72d5a;stroke:#b72d5a;stroke-width:20;stroke-linecap:butt;stroke-linejoin:miter;stroke-opacity:1;fill-opacity:0.40000001;stroke-miterlimit:4;stroke-dasharray:none"
       d="M 729.31087,954.53842 V 665.55992 L 1050.6157,578.85863 V 951.16417 H 729.31087 Z"
       id="path151224"
       sodipodi:nodetypes="cccccc" />
    <path
       style="fill:#b72d5a;fill-opacity:0.4;stroke:#b72d5a;stroke-width:7.986;stroke-linecap:butt;stroke-linejoin:miter;stroke-miterlimit:4;stroke-dasharray:none;stroke-opacity:1"
       d="m 2256.3861,550.59535 v -115.3891 l 128.2971,-34.61984 v 148.66161 h -128.2971 z"
       id="path151224-4"
       sodipodi:nodetypes="cccccc" />
  </g>
</svg>
